M48
;DRILL file {KiCad 4.0.7-e2-6376~58~ubuntu16.04.1} date Sat Dec 23 21:03:09 2017
;FORMAT={-:-/ absolute / inch / decimal}
FMAT,2
INCH,TZ
T1C0.039
T2C0.126
%
G90
G05
M72
T1
X4.1Y-4.475
X4.1Y-4.575
X4.1Y-5.475
X4.1Y-5.575
X4.2Y-4.475
X4.2Y-4.575
X4.2Y-5.475
X4.2Y-5.575
X4.3Y-4.475
X4.3Y-4.575
X4.3Y-5.475
X4.3Y-5.575
X4.4Y-4.475
X4.4Y-4.575
X4.4Y-5.475
X4.4Y-5.575
X4.5Y-4.475
X4.5Y-4.575
X4.5Y-5.475
X4.5Y-5.575
X4.6Y-4.475
X4.6Y-4.575
X4.6Y-5.475
X4.6Y-5.575
X4.6Y-5.8
X4.7Y-4.475
X4.7Y-4.575
X4.7Y-5.475
X4.7Y-5.575
X4.7Y-5.8
X4.8Y-4.475
X4.8Y-4.575
X4.8Y-5.475
X4.8Y-5.575
X5.Y-4.4
X5.Y-4.5
X5.Y-4.6
X5.Y-4.7
X5.Y-4.8
X5.Y-4.9
X5.Y-5.
X5.Y-5.1
X5.7Y-4.3
X5.7Y-4.4
X5.7Y-4.5
X5.7Y-4.6
X5.7Y-4.7
X5.7Y-4.8
X5.7Y-4.9
X5.7Y-5.
X5.7Y-5.1
X5.7Y-5.2
X5.7Y-5.3
X5.7Y-5.4
X5.7Y-5.5
X5.7Y-5.6
X5.7Y-5.7
X5.8Y-4.3
X5.8Y-4.4
X5.8Y-4.5
X5.8Y-4.6
X5.8Y-4.7
X5.8Y-4.8
X5.8Y-4.9
X5.8Y-5.
X5.8Y-5.1
X5.8Y-5.2
X5.8Y-5.3
X5.8Y-5.4
X5.8Y-5.5
X5.8Y-5.6
X5.8Y-5.7
X5.9Y-5.8
X6.Y-5.8
X6.1Y-5.8
X6.2Y-5.8
X6.4Y-4.3
X6.4Y-4.4
X6.4Y-4.5
X6.4Y-4.6
X6.4Y-4.7
X6.4Y-4.8
X6.4Y-4.9
X6.4Y-5.
X6.4Y-5.1
X6.4Y-5.2
X6.4Y-5.3
X6.4Y-5.4
X6.4Y-5.5
X6.4Y-5.6
X6.4Y-5.7
X6.5Y-4.3
X6.5Y-4.4
X6.5Y-4.5
X6.5Y-4.6
X6.5Y-4.7
X6.5Y-4.8
X6.5Y-4.9
X6.5Y-5.
X6.5Y-5.1
X6.5Y-5.2
X6.5Y-5.3
X6.5Y-5.4
X6.5Y-5.5
X6.5Y-5.6
X6.5Y-5.7
X6.7Y-4.9
X6.7Y-5.
X6.7Y-5.1
X6.7Y-5.2
X6.8Y-4.9
X6.8Y-5.
X6.8Y-5.1
X6.8Y-5.2
T2
X4.0551Y-4.252
X4.0551Y-5.7874
X6.7717Y-4.252
X6.7717Y-5.7874
T1
X5.2106Y-5.4G85X5.2894Y-5.4
G05
X5.2106Y-5.6362G85X5.2894Y-5.6362
G05
X5.435Y-5.5575G85X5.435Y-5.4787
G05
T0
M30
