G04 #@! TF.FileFunction,Copper,L1,Top,Signal*
%FSLAX46Y46*%
G04 Gerber Fmt 4.6, Leading zero omitted, Abs format (unit mm)*
G04 Created by KiCad (PCBNEW 4.0.7-e2-6376~58~ubuntu16.04.1) date Sat Dec 23 21:02:57 2017*
%MOMM*%
%LPD*%
G01*
G04 APERTURE LIST*
%ADD10C,0.100000*%
%ADD11R,1.700000X1.700000*%
%ADD12O,1.700000X1.700000*%
%ADD13R,3.500000X3.500000*%
%ADD14R,1.500000X1.300000*%
%ADD15C,5.600000*%
%ADD16C,0.228600*%
%ADD17C,0.508000*%
%ADD18C,0.254000*%
G04 APERTURE END LIST*
D10*
D11*
X121920000Y-113665000D03*
D12*
X119380000Y-113665000D03*
X116840000Y-113665000D03*
X114300000Y-113665000D03*
X111760000Y-113665000D03*
X109220000Y-113665000D03*
X106680000Y-113665000D03*
X104140000Y-113665000D03*
D11*
X149860000Y-147320000D03*
D12*
X152400000Y-147320000D03*
X154940000Y-147320000D03*
X157480000Y-147320000D03*
D11*
X144780000Y-109220000D03*
D12*
X144780000Y-111760000D03*
X144780000Y-114300000D03*
X144780000Y-116840000D03*
X144780000Y-119380000D03*
X144780000Y-121920000D03*
X144780000Y-124460000D03*
X144780000Y-127000000D03*
X144780000Y-129540000D03*
X144780000Y-132080000D03*
X144780000Y-134620000D03*
X144780000Y-137160000D03*
X144780000Y-139700000D03*
X144780000Y-142240000D03*
X144780000Y-144780000D03*
D11*
X165100000Y-109220000D03*
D12*
X165100000Y-111760000D03*
X165100000Y-114300000D03*
X165100000Y-116840000D03*
X165100000Y-119380000D03*
X165100000Y-121920000D03*
X165100000Y-124460000D03*
X165100000Y-127000000D03*
X165100000Y-129540000D03*
X165100000Y-132080000D03*
X165100000Y-134620000D03*
X165100000Y-137160000D03*
X165100000Y-139700000D03*
X165100000Y-142240000D03*
X165100000Y-144780000D03*
D13*
X133350000Y-137160000D03*
X133350000Y-143160000D03*
X138050000Y-140160000D03*
D11*
X119380000Y-147320000D03*
D12*
X116840000Y-147320000D03*
D14*
X126920000Y-132080000D03*
X129620000Y-132080000D03*
X139700000Y-109220000D03*
X142400000Y-109220000D03*
D11*
X147320000Y-109220000D03*
D12*
X147320000Y-111760000D03*
X147320000Y-114300000D03*
X147320000Y-116840000D03*
X147320000Y-119380000D03*
X147320000Y-121920000D03*
X147320000Y-124460000D03*
X147320000Y-127000000D03*
X147320000Y-129540000D03*
X147320000Y-132080000D03*
X147320000Y-134620000D03*
X147320000Y-137160000D03*
X147320000Y-139700000D03*
X147320000Y-142240000D03*
X147320000Y-144780000D03*
D11*
X162560000Y-109220000D03*
D12*
X162560000Y-111760000D03*
X162560000Y-114300000D03*
X162560000Y-116840000D03*
X162560000Y-119380000D03*
X162560000Y-121920000D03*
X162560000Y-124460000D03*
X162560000Y-127000000D03*
X162560000Y-129540000D03*
X162560000Y-132080000D03*
X162560000Y-134620000D03*
X162560000Y-137160000D03*
X162560000Y-139700000D03*
X162560000Y-142240000D03*
X162560000Y-144780000D03*
D11*
X121920000Y-141605000D03*
D12*
X119380000Y-141605000D03*
X116840000Y-141605000D03*
X114300000Y-141605000D03*
X111760000Y-141605000D03*
X109220000Y-141605000D03*
X106680000Y-141605000D03*
X104140000Y-141605000D03*
D11*
X127000000Y-111760000D03*
D12*
X127000000Y-114300000D03*
X127000000Y-116840000D03*
X127000000Y-119380000D03*
X127000000Y-121920000D03*
X127000000Y-124460000D03*
X127000000Y-127000000D03*
X127000000Y-129540000D03*
D11*
X121920000Y-116205000D03*
D12*
X121920000Y-139065000D03*
X119380000Y-139065000D03*
X119380000Y-116205000D03*
X116840000Y-139065000D03*
X116840000Y-116205000D03*
X114300000Y-139065000D03*
X114300000Y-116205000D03*
X111760000Y-139065000D03*
X111760000Y-116205000D03*
X109220000Y-139065000D03*
X109220000Y-116205000D03*
X106680000Y-139065000D03*
X106680000Y-116205000D03*
X104140000Y-139065000D03*
X104140000Y-116205000D03*
D11*
X170180000Y-124460000D03*
D12*
X172720000Y-124460000D03*
X170180000Y-127000000D03*
X172720000Y-127000000D03*
X170180000Y-129540000D03*
X172720000Y-129540000D03*
X170180000Y-132080000D03*
X172720000Y-132080000D03*
D15*
X172000000Y-147000000D03*
X103000000Y-147000000D03*
X172000000Y-108000000D03*
X103000000Y-108000000D03*
D16*
X172000000Y-147000000D02*
X172000000Y-132800000D01*
X172000000Y-132800000D02*
X172720000Y-132080000D01*
X106680000Y-139065000D02*
X106680000Y-141605000D01*
X106680000Y-113665000D02*
X106680000Y-116205000D01*
X172720000Y-129540000D02*
X172720000Y-132080000D01*
X172720000Y-127000000D02*
X172720000Y-129540000D01*
X172720000Y-124460000D02*
X172720000Y-127000000D01*
X165100000Y-111760000D02*
X168910000Y-111760000D01*
X168910000Y-111760000D02*
X171450000Y-109220000D01*
X144780000Y-116840000D02*
X147320000Y-116840000D01*
X162560000Y-111760000D02*
X163762081Y-111760000D01*
X163762081Y-111760000D02*
X165100000Y-111760000D01*
X106680000Y-138362081D02*
X106680000Y-139700000D01*
X144780000Y-109220000D02*
X142400000Y-109220000D01*
X144780000Y-109220000D02*
X145858600Y-109220000D01*
X145858600Y-109220000D02*
X147320000Y-109220000D01*
X116840000Y-113665000D02*
X116840000Y-112462919D01*
X116840000Y-112462919D02*
X121987919Y-107315000D01*
X121987919Y-107315000D02*
X148315000Y-107315000D01*
X148315000Y-107315000D02*
X149225000Y-108225000D01*
X149225000Y-108225000D02*
X149225000Y-111075000D01*
X149225000Y-111075000D02*
X148540000Y-111760000D01*
X148540000Y-111760000D02*
X147320000Y-111760000D01*
X116840000Y-113665000D02*
X116840000Y-116205000D01*
X144780000Y-111760000D02*
X145982081Y-111760000D01*
X145982081Y-111760000D02*
X147320000Y-111760000D01*
X144780000Y-114300000D02*
X145982081Y-114300000D01*
X145982081Y-114300000D02*
X147320000Y-114300000D01*
X129620000Y-132080000D02*
X129620000Y-120780000D01*
X129620000Y-120780000D02*
X131020000Y-119380000D01*
X131020000Y-119380000D02*
X143577919Y-119380000D01*
X143577919Y-119380000D02*
X144780000Y-119380000D01*
X144780000Y-119380000D02*
X145982081Y-119380000D01*
X145982081Y-119380000D02*
X147320000Y-119380000D01*
X144780000Y-121920000D02*
X145982081Y-121920000D01*
X145982081Y-121920000D02*
X147320000Y-121920000D01*
X144780000Y-124460000D02*
X147320000Y-124460000D01*
X144780000Y-127000000D02*
X145982081Y-127000000D01*
X145982081Y-127000000D02*
X147320000Y-127000000D01*
X144780000Y-129540000D02*
X147320000Y-129540000D01*
X144780000Y-132080000D02*
X145982081Y-132080000D01*
X145982081Y-132080000D02*
X147320000Y-132080000D01*
X144780000Y-134620000D02*
X147320000Y-134620000D01*
X144780000Y-137160000D02*
X145982081Y-137160000D01*
X145982081Y-137160000D02*
X147320000Y-137160000D01*
X144780000Y-139700000D02*
X147320000Y-139700000D01*
X144780000Y-142240000D02*
X145982081Y-142240000D01*
X145982081Y-142240000D02*
X147320000Y-142240000D01*
X147320000Y-144780000D02*
X144780000Y-144780000D01*
D17*
X121920000Y-113665000D02*
X121920000Y-116205000D01*
X170180000Y-129540000D02*
X170180000Y-132080000D01*
X170180000Y-127000000D02*
X170180000Y-129540000D01*
X170180000Y-124460000D02*
X170180000Y-127000000D01*
X165100000Y-116840000D02*
X170180000Y-121920000D01*
X170180000Y-121920000D02*
X170180000Y-124460000D01*
X162560000Y-116840000D02*
X165100000Y-116840000D01*
D16*
X162560000Y-119380000D02*
X165100000Y-119380000D01*
X162560000Y-121920000D02*
X163762081Y-121920000D01*
X163762081Y-121920000D02*
X165100000Y-121920000D01*
X162560000Y-124460000D02*
X159710000Y-124460000D01*
X159710000Y-124460000D02*
X150800000Y-115550000D01*
X150800000Y-115550000D02*
X128290000Y-115550000D01*
X128290000Y-115550000D02*
X127000000Y-116840000D01*
X162560000Y-124460000D02*
X165100000Y-124460000D01*
X162560000Y-127000000D02*
X160100000Y-127000000D01*
X160100000Y-127000000D02*
X151200000Y-118100000D01*
X151200000Y-118100000D02*
X128280000Y-118100000D01*
X128280000Y-118100000D02*
X127849999Y-118530001D01*
X127849999Y-118530001D02*
X127000000Y-119380000D01*
X162560000Y-127000000D02*
X165100000Y-127000000D01*
X162560000Y-129540000D02*
X165100000Y-129540000D01*
X162560000Y-132080000D02*
X165100000Y-132080000D01*
X162560000Y-134620000D02*
X163762081Y-134620000D01*
X163762081Y-134620000D02*
X165100000Y-134620000D01*
X162560000Y-137160000D02*
X165100000Y-137160000D01*
X162560000Y-139700000D02*
X165100000Y-139700000D01*
D17*
X162560000Y-142240000D02*
X165100000Y-142240000D01*
D16*
X162560000Y-144780000D02*
X163762081Y-144780000D01*
X163762081Y-144780000D02*
X165100000Y-144780000D01*
X121920000Y-139065000D02*
X121920000Y-141605000D01*
X121920000Y-138238600D02*
X121920000Y-139700000D01*
X126920000Y-132080000D02*
X126920000Y-129620000D01*
X126920000Y-129620000D02*
X127000000Y-129540000D01*
X139700000Y-109220000D02*
X122622919Y-109220000D01*
X122622919Y-109220000D02*
X119380000Y-112462919D01*
X119380000Y-112462919D02*
X119380000Y-113665000D01*
X119380000Y-113665000D02*
X119380000Y-116205000D01*
X119380000Y-115637919D02*
X119380000Y-116840000D01*
X114300000Y-113665000D02*
X114300000Y-116205000D01*
X133350000Y-143160000D02*
X133390000Y-143160000D01*
X111760000Y-113665000D02*
X111760000Y-116205000D01*
X111760000Y-119380000D02*
X111760000Y-116840000D01*
X111760000Y-120582081D02*
X111760000Y-119380000D01*
X133350000Y-137160000D02*
X128337919Y-137160000D01*
X128337919Y-137160000D02*
X111760000Y-120582081D01*
X111760000Y-116840000D02*
X111390000Y-116840000D01*
X109220000Y-119380000D02*
X109220000Y-118177919D01*
X125600000Y-135760000D02*
X109220000Y-119380000D01*
X119380000Y-147320000D02*
X120458600Y-147320000D01*
X109220000Y-118177919D02*
X109220000Y-116840000D01*
X120458600Y-147320000D02*
X125600000Y-142178600D01*
X125600000Y-142178600D02*
X125600000Y-135760000D01*
X109220000Y-113665000D02*
X109220000Y-116205000D01*
X124800000Y-141900000D02*
X124800000Y-136250000D01*
X106460000Y-121700000D02*
X104140000Y-119380000D01*
X124800000Y-136250000D02*
X110250000Y-121700000D01*
X104140000Y-118177919D02*
X104140000Y-116840000D01*
X116840000Y-146210000D02*
X117650000Y-145400000D01*
X104140000Y-119380000D02*
X104140000Y-118177919D01*
X116840000Y-147320000D02*
X116840000Y-146210000D01*
X117650000Y-145400000D02*
X121300000Y-145400000D01*
X121300000Y-145400000D02*
X124800000Y-141900000D01*
X110250000Y-121700000D02*
X106460000Y-121700000D01*
X104140000Y-113665000D02*
X104140000Y-116205000D01*
X119380000Y-139065000D02*
X119380000Y-141605000D01*
X116840000Y-139065000D02*
X116840000Y-141605000D01*
X116840000Y-138362081D02*
X116840000Y-139700000D01*
X114300000Y-139065000D02*
X114300000Y-140267081D01*
X114300000Y-140267081D02*
X114300000Y-141605000D01*
X111760000Y-139065000D02*
X111760000Y-140970000D01*
X111760000Y-140970000D02*
X111760000Y-141605000D01*
X109220000Y-139065000D02*
X109220000Y-141605000D01*
X109220000Y-138362081D02*
X109220000Y-139700000D01*
X104140000Y-139065000D02*
X104140000Y-141605000D01*
X162560000Y-114300000D02*
X165100000Y-114300000D01*
D18*
G36*
X169547658Y-105727266D02*
X169093797Y-106045501D01*
X168567064Y-107306434D01*
X168562965Y-108672956D01*
X169082122Y-109937027D01*
X169093797Y-109954499D01*
X169547660Y-110272735D01*
X171820395Y-108000000D01*
X171806253Y-107985858D01*
X171985858Y-107806253D01*
X172000000Y-107820395D01*
X172014143Y-107806253D01*
X172193748Y-107985858D01*
X172179605Y-108000000D01*
X172193748Y-108014143D01*
X172014143Y-108193748D01*
X172000000Y-108179605D01*
X169727265Y-110452340D01*
X170045501Y-110906203D01*
X171306434Y-111432936D01*
X172672956Y-111437035D01*
X173937027Y-110917878D01*
X173954499Y-110906203D01*
X174272734Y-110452342D01*
X174290000Y-110469608D01*
X174290000Y-144530392D01*
X174272734Y-144547658D01*
X173954499Y-144093797D01*
X172693566Y-143567064D01*
X171327044Y-143562965D01*
X170062973Y-144082122D01*
X170045501Y-144093797D01*
X169727265Y-144547660D01*
X172000000Y-146820395D01*
X172014143Y-146806253D01*
X172193748Y-146985858D01*
X172179605Y-147000000D01*
X172193748Y-147014143D01*
X172014143Y-147193748D01*
X172000000Y-147179605D01*
X171985858Y-147193748D01*
X171806253Y-147014143D01*
X171820395Y-147000000D01*
X169547660Y-144727265D01*
X169093797Y-145045501D01*
X168567064Y-146306434D01*
X168562965Y-147672956D01*
X169082122Y-148937027D01*
X169093797Y-148954499D01*
X169547658Y-149272734D01*
X169530392Y-149290000D01*
X105469608Y-149290000D01*
X105452342Y-149272734D01*
X105906203Y-148954499D01*
X106432936Y-147693566D01*
X106437035Y-146327044D01*
X105917878Y-145062973D01*
X105906203Y-145045501D01*
X105452340Y-144727265D01*
X103179605Y-147000000D01*
X103193748Y-147014143D01*
X103014143Y-147193748D01*
X103000000Y-147179605D01*
X102985858Y-147193748D01*
X102806253Y-147014143D01*
X102820395Y-147000000D01*
X102806253Y-146985858D01*
X102985858Y-146806253D01*
X103000000Y-146820395D01*
X105272735Y-144547660D01*
X104954499Y-144093797D01*
X103693566Y-143567064D01*
X102327044Y-143562965D01*
X101062973Y-144082122D01*
X101045501Y-144093797D01*
X100727266Y-144547658D01*
X100710000Y-144530392D01*
X100710000Y-139035907D01*
X102655000Y-139035907D01*
X102655000Y-139094093D01*
X102768039Y-139662378D01*
X103089946Y-140144147D01*
X103375578Y-140335000D01*
X103089946Y-140525853D01*
X102768039Y-141007622D01*
X102655000Y-141575907D01*
X102655000Y-141634093D01*
X102768039Y-142202378D01*
X103089946Y-142684147D01*
X103571715Y-143006054D01*
X104140000Y-143119093D01*
X104708285Y-143006054D01*
X105190054Y-142684147D01*
X105417702Y-142343447D01*
X105484817Y-142486358D01*
X105913076Y-142876645D01*
X106323110Y-143046476D01*
X106553000Y-142925155D01*
X106553000Y-141732000D01*
X106533000Y-141732000D01*
X106533000Y-141478000D01*
X106553000Y-141478000D01*
X106553000Y-139192000D01*
X106533000Y-139192000D01*
X106533000Y-138938000D01*
X106553000Y-138938000D01*
X106553000Y-137744845D01*
X106323110Y-137623524D01*
X105913076Y-137793355D01*
X105484817Y-138183642D01*
X105417702Y-138326553D01*
X105190054Y-137985853D01*
X104708285Y-137663946D01*
X104140000Y-137550907D01*
X103571715Y-137663946D01*
X103089946Y-137985853D01*
X102768039Y-138467622D01*
X102655000Y-139035907D01*
X100710000Y-139035907D01*
X100710000Y-113635907D01*
X102655000Y-113635907D01*
X102655000Y-113694093D01*
X102768039Y-114262378D01*
X103089946Y-114744147D01*
X103375578Y-114935000D01*
X103089946Y-115125853D01*
X102768039Y-115607622D01*
X102655000Y-116175907D01*
X102655000Y-116234093D01*
X102768039Y-116802378D01*
X103089946Y-117284147D01*
X103390700Y-117485104D01*
X103390700Y-119380000D01*
X103447737Y-119666745D01*
X103610165Y-119909835D01*
X105930165Y-122229835D01*
X106173255Y-122392263D01*
X106460000Y-122449300D01*
X109939630Y-122449300D01*
X124050700Y-136560370D01*
X124050700Y-141589630D01*
X123417440Y-142222890D01*
X123417440Y-140755000D01*
X123373162Y-140519683D01*
X123234090Y-140303559D01*
X123021890Y-140158569D01*
X122965546Y-140147159D01*
X122970054Y-140144147D01*
X123291961Y-139662378D01*
X123405000Y-139094093D01*
X123405000Y-139035907D01*
X123291961Y-138467622D01*
X122970054Y-137985853D01*
X122488285Y-137663946D01*
X122338029Y-137634058D01*
X122206745Y-137546337D01*
X121920000Y-137489300D01*
X121633255Y-137546337D01*
X121501971Y-137634058D01*
X121351715Y-137663946D01*
X120869946Y-137985853D01*
X120650000Y-138315026D01*
X120430054Y-137985853D01*
X119948285Y-137663946D01*
X119380000Y-137550907D01*
X118811715Y-137663946D01*
X118329946Y-137985853D01*
X118110000Y-138315026D01*
X117890054Y-137985853D01*
X117408285Y-137663946D01*
X116840000Y-137550907D01*
X116271715Y-137663946D01*
X115789946Y-137985853D01*
X115570000Y-138315026D01*
X115350054Y-137985853D01*
X114868285Y-137663946D01*
X114300000Y-137550907D01*
X113731715Y-137663946D01*
X113249946Y-137985853D01*
X113030000Y-138315026D01*
X112810054Y-137985853D01*
X112328285Y-137663946D01*
X111760000Y-137550907D01*
X111191715Y-137663946D01*
X110709946Y-137985853D01*
X110490000Y-138315026D01*
X110270054Y-137985853D01*
X109788285Y-137663946D01*
X109220000Y-137550907D01*
X108651715Y-137663946D01*
X108169946Y-137985853D01*
X107942298Y-138326553D01*
X107875183Y-138183642D01*
X107446924Y-137793355D01*
X107036890Y-137623524D01*
X106807000Y-137744845D01*
X106807000Y-138938000D01*
X106827000Y-138938000D01*
X106827000Y-139192000D01*
X106807000Y-139192000D01*
X106807000Y-141478000D01*
X106827000Y-141478000D01*
X106827000Y-141732000D01*
X106807000Y-141732000D01*
X106807000Y-142925155D01*
X107036890Y-143046476D01*
X107446924Y-142876645D01*
X107875183Y-142486358D01*
X107942298Y-142343447D01*
X108169946Y-142684147D01*
X108651715Y-143006054D01*
X109220000Y-143119093D01*
X109788285Y-143006054D01*
X110270054Y-142684147D01*
X110490000Y-142354974D01*
X110709946Y-142684147D01*
X111191715Y-143006054D01*
X111760000Y-143119093D01*
X112328285Y-143006054D01*
X112810054Y-142684147D01*
X113030000Y-142354974D01*
X113249946Y-142684147D01*
X113731715Y-143006054D01*
X114300000Y-143119093D01*
X114868285Y-143006054D01*
X115350054Y-142684147D01*
X115570000Y-142354974D01*
X115789946Y-142684147D01*
X116271715Y-143006054D01*
X116840000Y-143119093D01*
X117408285Y-143006054D01*
X117890054Y-142684147D01*
X118110000Y-142354974D01*
X118329946Y-142684147D01*
X118811715Y-143006054D01*
X119380000Y-143119093D01*
X119948285Y-143006054D01*
X120430054Y-142684147D01*
X120457850Y-142642548D01*
X120466838Y-142690317D01*
X120605910Y-142906441D01*
X120818110Y-143051431D01*
X121070000Y-143102440D01*
X122537890Y-143102440D01*
X120989630Y-144650700D01*
X117650000Y-144650700D01*
X117363255Y-144707737D01*
X117120165Y-144870165D01*
X116310165Y-145680165D01*
X116147737Y-145923255D01*
X116129722Y-146013822D01*
X115789946Y-146240853D01*
X115468039Y-146722622D01*
X115355000Y-147290907D01*
X115355000Y-147349093D01*
X115468039Y-147917378D01*
X115789946Y-148399147D01*
X116271715Y-148721054D01*
X116840000Y-148834093D01*
X117408285Y-148721054D01*
X117890054Y-148399147D01*
X117917850Y-148357548D01*
X117926838Y-148405317D01*
X118065910Y-148621441D01*
X118278110Y-148766431D01*
X118530000Y-148817440D01*
X120230000Y-148817440D01*
X120465317Y-148773162D01*
X120681441Y-148634090D01*
X120826431Y-148421890D01*
X120877440Y-148170000D01*
X120877440Y-147924000D01*
X120988435Y-147849835D01*
X121232520Y-147605750D01*
X148375000Y-147605750D01*
X148375000Y-148296309D01*
X148471673Y-148529698D01*
X148650301Y-148708327D01*
X148883690Y-148805000D01*
X149574250Y-148805000D01*
X149733000Y-148646250D01*
X149733000Y-147447000D01*
X148533750Y-147447000D01*
X148375000Y-147605750D01*
X121232520Y-147605750D01*
X122494579Y-146343691D01*
X148375000Y-146343691D01*
X148375000Y-147034250D01*
X148533750Y-147193000D01*
X149733000Y-147193000D01*
X149733000Y-145993750D01*
X149987000Y-145993750D01*
X149987000Y-147193000D01*
X150007000Y-147193000D01*
X150007000Y-147447000D01*
X149987000Y-147447000D01*
X149987000Y-148646250D01*
X150145750Y-148805000D01*
X150836310Y-148805000D01*
X151069699Y-148708327D01*
X151248327Y-148529698D01*
X151320597Y-148355223D01*
X151349946Y-148399147D01*
X151831715Y-148721054D01*
X152400000Y-148834093D01*
X152968285Y-148721054D01*
X153450054Y-148399147D01*
X153670000Y-148069974D01*
X153889946Y-148399147D01*
X154371715Y-148721054D01*
X154940000Y-148834093D01*
X155508285Y-148721054D01*
X155990054Y-148399147D01*
X156210000Y-148069974D01*
X156429946Y-148399147D01*
X156911715Y-148721054D01*
X157480000Y-148834093D01*
X158048285Y-148721054D01*
X158530054Y-148399147D01*
X158851961Y-147917378D01*
X158965000Y-147349093D01*
X158965000Y-147290907D01*
X158851961Y-146722622D01*
X158530054Y-146240853D01*
X158048285Y-145918946D01*
X157480000Y-145805907D01*
X156911715Y-145918946D01*
X156429946Y-146240853D01*
X156210000Y-146570026D01*
X155990054Y-146240853D01*
X155508285Y-145918946D01*
X154940000Y-145805907D01*
X154371715Y-145918946D01*
X153889946Y-146240853D01*
X153670000Y-146570026D01*
X153450054Y-146240853D01*
X152968285Y-145918946D01*
X152400000Y-145805907D01*
X151831715Y-145918946D01*
X151349946Y-146240853D01*
X151320597Y-146284777D01*
X151248327Y-146110302D01*
X151069699Y-145931673D01*
X150836310Y-145835000D01*
X150145750Y-145835000D01*
X149987000Y-145993750D01*
X149733000Y-145993750D01*
X149574250Y-145835000D01*
X148883690Y-145835000D01*
X148650301Y-145931673D01*
X148471673Y-146110302D01*
X148375000Y-146343691D01*
X122494579Y-146343691D01*
X126129835Y-142708435D01*
X126239039Y-142545000D01*
X126292263Y-142465345D01*
X126349300Y-142178600D01*
X126349300Y-141410000D01*
X130952560Y-141410000D01*
X130952560Y-144910000D01*
X130996838Y-145145317D01*
X131135910Y-145361441D01*
X131348110Y-145506431D01*
X131600000Y-145557440D01*
X135100000Y-145557440D01*
X135335317Y-145513162D01*
X135551441Y-145374090D01*
X135696431Y-145161890D01*
X135747440Y-144910000D01*
X135747440Y-142235337D01*
X135761673Y-142269698D01*
X135940301Y-142448327D01*
X136173690Y-142545000D01*
X137764250Y-142545000D01*
X137923000Y-142386250D01*
X137923000Y-140287000D01*
X138177000Y-140287000D01*
X138177000Y-142386250D01*
X138335750Y-142545000D01*
X139926310Y-142545000D01*
X140159699Y-142448327D01*
X140338327Y-142269698D01*
X140435000Y-142036309D01*
X140435000Y-140445750D01*
X140276250Y-140287000D01*
X138177000Y-140287000D01*
X137923000Y-140287000D01*
X135823750Y-140287000D01*
X135665000Y-140445750D01*
X135665000Y-141115378D01*
X135564090Y-140958559D01*
X135351890Y-140813569D01*
X135100000Y-140762560D01*
X131600000Y-140762560D01*
X131364683Y-140806838D01*
X131148559Y-140945910D01*
X131003569Y-141158110D01*
X130952560Y-141410000D01*
X126349300Y-141410000D01*
X126349300Y-136231051D01*
X127808084Y-137689835D01*
X128051174Y-137852263D01*
X128337919Y-137909300D01*
X130952560Y-137909300D01*
X130952560Y-138910000D01*
X130996838Y-139145317D01*
X131135910Y-139361441D01*
X131348110Y-139506431D01*
X131600000Y-139557440D01*
X135100000Y-139557440D01*
X135335317Y-139513162D01*
X135551441Y-139374090D01*
X135665000Y-139207891D01*
X135665000Y-139874250D01*
X135823750Y-140033000D01*
X137923000Y-140033000D01*
X137923000Y-137933750D01*
X138177000Y-137933750D01*
X138177000Y-140033000D01*
X140276250Y-140033000D01*
X140435000Y-139874250D01*
X140435000Y-138283691D01*
X140338327Y-138050302D01*
X140159699Y-137871673D01*
X139926310Y-137775000D01*
X138335750Y-137775000D01*
X138177000Y-137933750D01*
X137923000Y-137933750D01*
X137764250Y-137775000D01*
X136173690Y-137775000D01*
X135940301Y-137871673D01*
X135761673Y-138050302D01*
X135747440Y-138084663D01*
X135747440Y-135410000D01*
X135703162Y-135174683D01*
X135564090Y-134958559D01*
X135351890Y-134813569D01*
X135100000Y-134762560D01*
X131600000Y-134762560D01*
X131364683Y-134806838D01*
X131148559Y-134945910D01*
X131003569Y-135158110D01*
X130952560Y-135410000D01*
X130952560Y-136410700D01*
X128648289Y-136410700D01*
X112509300Y-120271711D01*
X112509300Y-117485104D01*
X112810054Y-117284147D01*
X113030000Y-116954974D01*
X113249946Y-117284147D01*
X113731715Y-117606054D01*
X114300000Y-117719093D01*
X114868285Y-117606054D01*
X115350054Y-117284147D01*
X115570000Y-116954974D01*
X115789946Y-117284147D01*
X116271715Y-117606054D01*
X116840000Y-117719093D01*
X117408285Y-117606054D01*
X117890054Y-117284147D01*
X118110000Y-116954974D01*
X118329946Y-117284147D01*
X118811715Y-117606054D01*
X119380000Y-117719093D01*
X119948285Y-117606054D01*
X120430054Y-117284147D01*
X120457850Y-117242548D01*
X120466838Y-117290317D01*
X120605910Y-117506441D01*
X120818110Y-117651431D01*
X121070000Y-117702440D01*
X122770000Y-117702440D01*
X123005317Y-117658162D01*
X123221441Y-117519090D01*
X123366431Y-117306890D01*
X123417440Y-117055000D01*
X123417440Y-115355000D01*
X123373162Y-115119683D01*
X123252985Y-114932923D01*
X123366431Y-114766890D01*
X123417440Y-114515000D01*
X123417440Y-112815000D01*
X123373162Y-112579683D01*
X123234090Y-112363559D01*
X123021890Y-112218569D01*
X122770000Y-112167560D01*
X121070000Y-112167560D01*
X120834683Y-112211838D01*
X120618559Y-112350910D01*
X120473569Y-112563110D01*
X120459914Y-112630541D01*
X120430054Y-112585853D01*
X120362125Y-112540464D01*
X121992589Y-110910000D01*
X125502560Y-110910000D01*
X125502560Y-112610000D01*
X125546838Y-112845317D01*
X125685910Y-113061441D01*
X125898110Y-113206431D01*
X126006107Y-113228301D01*
X125728355Y-113533076D01*
X125558524Y-113943110D01*
X125679845Y-114173000D01*
X126873000Y-114173000D01*
X126873000Y-114153000D01*
X127127000Y-114153000D01*
X127127000Y-114173000D01*
X128320155Y-114173000D01*
X128441476Y-113943110D01*
X128271645Y-113533076D01*
X127995499Y-113230063D01*
X128085317Y-113213162D01*
X128301441Y-113074090D01*
X128446431Y-112861890D01*
X128497440Y-112610000D01*
X128497440Y-110910000D01*
X128453162Y-110674683D01*
X128314090Y-110458559D01*
X128101890Y-110313569D01*
X127850000Y-110262560D01*
X126150000Y-110262560D01*
X125914683Y-110306838D01*
X125698559Y-110445910D01*
X125553569Y-110658110D01*
X125502560Y-110910000D01*
X121992589Y-110910000D01*
X122933289Y-109969300D01*
X138321245Y-109969300D01*
X138346838Y-110105317D01*
X138485910Y-110321441D01*
X138698110Y-110466431D01*
X138950000Y-110517440D01*
X140450000Y-110517440D01*
X140685317Y-110473162D01*
X140901441Y-110334090D01*
X141046431Y-110121890D01*
X141049081Y-110108803D01*
X141185910Y-110321441D01*
X141398110Y-110466431D01*
X141650000Y-110517440D01*
X143150000Y-110517440D01*
X143385317Y-110473162D01*
X143420341Y-110450625D01*
X143465910Y-110521441D01*
X143678110Y-110666431D01*
X143745541Y-110680086D01*
X143700853Y-110709946D01*
X143378946Y-111191715D01*
X143265907Y-111760000D01*
X143378946Y-112328285D01*
X143700853Y-112810054D01*
X144030026Y-113030000D01*
X143700853Y-113249946D01*
X143378946Y-113731715D01*
X143265907Y-114300000D01*
X143365502Y-114800700D01*
X128381912Y-114800700D01*
X128441476Y-114656890D01*
X128320155Y-114427000D01*
X127127000Y-114427000D01*
X127127000Y-114447000D01*
X126873000Y-114447000D01*
X126873000Y-114427000D01*
X125679845Y-114427000D01*
X125558524Y-114656890D01*
X125728355Y-115066924D01*
X126118642Y-115495183D01*
X126261553Y-115562298D01*
X125920853Y-115789946D01*
X125598946Y-116271715D01*
X125485907Y-116840000D01*
X125598946Y-117408285D01*
X125920853Y-117890054D01*
X126250026Y-118110000D01*
X125920853Y-118329946D01*
X125598946Y-118811715D01*
X125485907Y-119380000D01*
X125598946Y-119948285D01*
X125920853Y-120430054D01*
X126250026Y-120650000D01*
X125920853Y-120869946D01*
X125598946Y-121351715D01*
X125485907Y-121920000D01*
X125598946Y-122488285D01*
X125920853Y-122970054D01*
X126250026Y-123190000D01*
X125920853Y-123409946D01*
X125598946Y-123891715D01*
X125485907Y-124460000D01*
X125598946Y-125028285D01*
X125920853Y-125510054D01*
X126250026Y-125730000D01*
X125920853Y-125949946D01*
X125598946Y-126431715D01*
X125485907Y-127000000D01*
X125598946Y-127568285D01*
X125920853Y-128050054D01*
X126250026Y-128270000D01*
X125920853Y-128489946D01*
X125598946Y-128971715D01*
X125485907Y-129540000D01*
X125598946Y-130108285D01*
X125920853Y-130590054D01*
X126170700Y-130756996D01*
X126170700Y-130782560D01*
X126170000Y-130782560D01*
X125934683Y-130826838D01*
X125718559Y-130965910D01*
X125573569Y-131178110D01*
X125522560Y-131430000D01*
X125522560Y-132730000D01*
X125566838Y-132965317D01*
X125705910Y-133181441D01*
X125918110Y-133326431D01*
X126170000Y-133377440D01*
X127670000Y-133377440D01*
X127905317Y-133333162D01*
X128121441Y-133194090D01*
X128266431Y-132981890D01*
X128269081Y-132968803D01*
X128405910Y-133181441D01*
X128618110Y-133326431D01*
X128870000Y-133377440D01*
X130370000Y-133377440D01*
X130605317Y-133333162D01*
X130821441Y-133194090D01*
X130966431Y-132981890D01*
X131017440Y-132730000D01*
X131017440Y-131430000D01*
X130973162Y-131194683D01*
X130834090Y-130978559D01*
X130621890Y-130833569D01*
X130370000Y-130782560D01*
X130369300Y-130782560D01*
X130369300Y-121090370D01*
X131330370Y-120129300D01*
X143499896Y-120129300D01*
X143700853Y-120430054D01*
X144030026Y-120650000D01*
X143700853Y-120869946D01*
X143378946Y-121351715D01*
X143265907Y-121920000D01*
X143378946Y-122488285D01*
X143700853Y-122970054D01*
X144030026Y-123190000D01*
X143700853Y-123409946D01*
X143378946Y-123891715D01*
X143265907Y-124460000D01*
X143378946Y-125028285D01*
X143700853Y-125510054D01*
X144030026Y-125730000D01*
X143700853Y-125949946D01*
X143378946Y-126431715D01*
X143265907Y-127000000D01*
X143378946Y-127568285D01*
X143700853Y-128050054D01*
X144030026Y-128270000D01*
X143700853Y-128489946D01*
X143378946Y-128971715D01*
X143265907Y-129540000D01*
X143378946Y-130108285D01*
X143700853Y-130590054D01*
X144030026Y-130810000D01*
X143700853Y-131029946D01*
X143378946Y-131511715D01*
X143265907Y-132080000D01*
X143378946Y-132648285D01*
X143700853Y-133130054D01*
X144030026Y-133350000D01*
X143700853Y-133569946D01*
X143378946Y-134051715D01*
X143265907Y-134620000D01*
X143378946Y-135188285D01*
X143700853Y-135670054D01*
X144030026Y-135890000D01*
X143700853Y-136109946D01*
X143378946Y-136591715D01*
X143265907Y-137160000D01*
X143378946Y-137728285D01*
X143700853Y-138210054D01*
X144030026Y-138430000D01*
X143700853Y-138649946D01*
X143378946Y-139131715D01*
X143265907Y-139700000D01*
X143378946Y-140268285D01*
X143700853Y-140750054D01*
X144030026Y-140970000D01*
X143700853Y-141189946D01*
X143378946Y-141671715D01*
X143265907Y-142240000D01*
X143378946Y-142808285D01*
X143700853Y-143290054D01*
X144030026Y-143510000D01*
X143700853Y-143729946D01*
X143378946Y-144211715D01*
X143265907Y-144780000D01*
X143378946Y-145348285D01*
X143700853Y-145830054D01*
X144182622Y-146151961D01*
X144750907Y-146265000D01*
X144809093Y-146265000D01*
X145377378Y-146151961D01*
X145859147Y-145830054D01*
X146050000Y-145544422D01*
X146240853Y-145830054D01*
X146722622Y-146151961D01*
X147290907Y-146265000D01*
X147349093Y-146265000D01*
X147917378Y-146151961D01*
X148399147Y-145830054D01*
X148721054Y-145348285D01*
X148834093Y-144780000D01*
X148721054Y-144211715D01*
X148399147Y-143729946D01*
X148069974Y-143510000D01*
X148399147Y-143290054D01*
X148721054Y-142808285D01*
X148834093Y-142240000D01*
X148721054Y-141671715D01*
X148399147Y-141189946D01*
X148069974Y-140970000D01*
X148399147Y-140750054D01*
X148721054Y-140268285D01*
X148834093Y-139700000D01*
X148721054Y-139131715D01*
X148399147Y-138649946D01*
X148069974Y-138430000D01*
X148399147Y-138210054D01*
X148721054Y-137728285D01*
X148834093Y-137160000D01*
X148721054Y-136591715D01*
X148399147Y-136109946D01*
X148069974Y-135890000D01*
X148399147Y-135670054D01*
X148721054Y-135188285D01*
X148834093Y-134620000D01*
X148721054Y-134051715D01*
X148399147Y-133569946D01*
X148069974Y-133350000D01*
X148399147Y-133130054D01*
X148721054Y-132648285D01*
X148834093Y-132080000D01*
X148721054Y-131511715D01*
X148399147Y-131029946D01*
X148069974Y-130810000D01*
X148399147Y-130590054D01*
X148721054Y-130108285D01*
X148834093Y-129540000D01*
X148721054Y-128971715D01*
X148399147Y-128489946D01*
X148069974Y-128270000D01*
X148399147Y-128050054D01*
X148721054Y-127568285D01*
X148834093Y-127000000D01*
X148721054Y-126431715D01*
X148399147Y-125949946D01*
X148069974Y-125730000D01*
X148399147Y-125510054D01*
X148721054Y-125028285D01*
X148834093Y-124460000D01*
X148721054Y-123891715D01*
X148399147Y-123409946D01*
X148069974Y-123190000D01*
X148399147Y-122970054D01*
X148721054Y-122488285D01*
X148834093Y-121920000D01*
X148721054Y-121351715D01*
X148399147Y-120869946D01*
X148069974Y-120650000D01*
X148399147Y-120430054D01*
X148721054Y-119948285D01*
X148834093Y-119380000D01*
X148728530Y-118849300D01*
X150889630Y-118849300D01*
X159570165Y-127529835D01*
X159813255Y-127692263D01*
X160100000Y-127749300D01*
X161279896Y-127749300D01*
X161480853Y-128050054D01*
X161810026Y-128270000D01*
X161480853Y-128489946D01*
X161158946Y-128971715D01*
X161045907Y-129540000D01*
X161158946Y-130108285D01*
X161480853Y-130590054D01*
X161810026Y-130810000D01*
X161480853Y-131029946D01*
X161158946Y-131511715D01*
X161045907Y-132080000D01*
X161158946Y-132648285D01*
X161480853Y-133130054D01*
X161810026Y-133350000D01*
X161480853Y-133569946D01*
X161158946Y-134051715D01*
X161045907Y-134620000D01*
X161158946Y-135188285D01*
X161480853Y-135670054D01*
X161810026Y-135890000D01*
X161480853Y-136109946D01*
X161158946Y-136591715D01*
X161045907Y-137160000D01*
X161158946Y-137728285D01*
X161480853Y-138210054D01*
X161810026Y-138430000D01*
X161480853Y-138649946D01*
X161158946Y-139131715D01*
X161045907Y-139700000D01*
X161158946Y-140268285D01*
X161480853Y-140750054D01*
X161810026Y-140970000D01*
X161480853Y-141189946D01*
X161158946Y-141671715D01*
X161045907Y-142240000D01*
X161158946Y-142808285D01*
X161480853Y-143290054D01*
X161810026Y-143510000D01*
X161480853Y-143729946D01*
X161158946Y-144211715D01*
X161045907Y-144780000D01*
X161158946Y-145348285D01*
X161480853Y-145830054D01*
X161962622Y-146151961D01*
X162530907Y-146265000D01*
X162589093Y-146265000D01*
X163157378Y-146151961D01*
X163639147Y-145830054D01*
X163830000Y-145544422D01*
X164020853Y-145830054D01*
X164502622Y-146151961D01*
X165070907Y-146265000D01*
X165129093Y-146265000D01*
X165697378Y-146151961D01*
X166179147Y-145830054D01*
X166501054Y-145348285D01*
X166614093Y-144780000D01*
X166501054Y-144211715D01*
X166179147Y-143729946D01*
X165849974Y-143510000D01*
X166179147Y-143290054D01*
X166501054Y-142808285D01*
X166614093Y-142240000D01*
X166501054Y-141671715D01*
X166179147Y-141189946D01*
X165849974Y-140970000D01*
X166179147Y-140750054D01*
X166501054Y-140268285D01*
X166614093Y-139700000D01*
X166501054Y-139131715D01*
X166179147Y-138649946D01*
X165849974Y-138430000D01*
X166179147Y-138210054D01*
X166501054Y-137728285D01*
X166614093Y-137160000D01*
X166501054Y-136591715D01*
X166179147Y-136109946D01*
X165849974Y-135890000D01*
X166179147Y-135670054D01*
X166501054Y-135188285D01*
X166614093Y-134620000D01*
X166501054Y-134051715D01*
X166179147Y-133569946D01*
X165849974Y-133350000D01*
X166179147Y-133130054D01*
X166501054Y-132648285D01*
X166614093Y-132080000D01*
X166501054Y-131511715D01*
X166179147Y-131029946D01*
X165849974Y-130810000D01*
X166179147Y-130590054D01*
X166501054Y-130108285D01*
X166614093Y-129540000D01*
X166501054Y-128971715D01*
X166179147Y-128489946D01*
X165849974Y-128270000D01*
X166179147Y-128050054D01*
X166501054Y-127568285D01*
X166614093Y-127000000D01*
X166501054Y-126431715D01*
X166179147Y-125949946D01*
X165849974Y-125730000D01*
X166179147Y-125510054D01*
X166501054Y-125028285D01*
X166614093Y-124460000D01*
X166501054Y-123891715D01*
X166179147Y-123409946D01*
X165849974Y-123190000D01*
X166179147Y-122970054D01*
X166501054Y-122488285D01*
X166614093Y-121920000D01*
X166501054Y-121351715D01*
X166179147Y-120869946D01*
X165849974Y-120650000D01*
X166179147Y-120430054D01*
X166501054Y-119948285D01*
X166575713Y-119572949D01*
X169291000Y-122288236D01*
X169291000Y-122969898D01*
X169094683Y-123006838D01*
X168878559Y-123145910D01*
X168733569Y-123358110D01*
X168682560Y-123610000D01*
X168682560Y-125310000D01*
X168726838Y-125545317D01*
X168865910Y-125761441D01*
X169078110Y-125906431D01*
X169145541Y-125920086D01*
X169100853Y-125949946D01*
X168778946Y-126431715D01*
X168665907Y-127000000D01*
X168778946Y-127568285D01*
X169100853Y-128050054D01*
X169291000Y-128177106D01*
X169291000Y-128362894D01*
X169100853Y-128489946D01*
X168778946Y-128971715D01*
X168665907Y-129540000D01*
X168778946Y-130108285D01*
X169100853Y-130590054D01*
X169291000Y-130717106D01*
X169291000Y-130902894D01*
X169100853Y-131029946D01*
X168778946Y-131511715D01*
X168665907Y-132080000D01*
X168778946Y-132648285D01*
X169100853Y-133130054D01*
X169582622Y-133451961D01*
X170150907Y-133565000D01*
X170209093Y-133565000D01*
X170777378Y-133451961D01*
X171259147Y-133130054D01*
X171448345Y-132846899D01*
X171448355Y-132846924D01*
X171838642Y-133275183D01*
X172363108Y-133521486D01*
X172593000Y-133400819D01*
X172593000Y-132207000D01*
X172847000Y-132207000D01*
X172847000Y-133400819D01*
X173076892Y-133521486D01*
X173601358Y-133275183D01*
X173991645Y-132846924D01*
X174161476Y-132436890D01*
X174040155Y-132207000D01*
X172847000Y-132207000D01*
X172593000Y-132207000D01*
X172573000Y-132207000D01*
X172573000Y-131953000D01*
X172593000Y-131953000D01*
X172593000Y-129667000D01*
X172847000Y-129667000D01*
X172847000Y-131953000D01*
X174040155Y-131953000D01*
X174161476Y-131723110D01*
X173991645Y-131313076D01*
X173601358Y-130884817D01*
X173442046Y-130810000D01*
X173601358Y-130735183D01*
X173991645Y-130306924D01*
X174161476Y-129896890D01*
X174040155Y-129667000D01*
X172847000Y-129667000D01*
X172593000Y-129667000D01*
X172573000Y-129667000D01*
X172573000Y-129413000D01*
X172593000Y-129413000D01*
X172593000Y-127127000D01*
X172847000Y-127127000D01*
X172847000Y-129413000D01*
X174040155Y-129413000D01*
X174161476Y-129183110D01*
X173991645Y-128773076D01*
X173601358Y-128344817D01*
X173442046Y-128270000D01*
X173601358Y-128195183D01*
X173991645Y-127766924D01*
X174161476Y-127356890D01*
X174040155Y-127127000D01*
X172847000Y-127127000D01*
X172593000Y-127127000D01*
X172573000Y-127127000D01*
X172573000Y-126873000D01*
X172593000Y-126873000D01*
X172593000Y-124587000D01*
X172847000Y-124587000D01*
X172847000Y-126873000D01*
X174040155Y-126873000D01*
X174161476Y-126643110D01*
X173991645Y-126233076D01*
X173601358Y-125804817D01*
X173442046Y-125730000D01*
X173601358Y-125655183D01*
X173991645Y-125226924D01*
X174161476Y-124816890D01*
X174040155Y-124587000D01*
X172847000Y-124587000D01*
X172593000Y-124587000D01*
X172573000Y-124587000D01*
X172573000Y-124333000D01*
X172593000Y-124333000D01*
X172593000Y-123139181D01*
X172847000Y-123139181D01*
X172847000Y-124333000D01*
X174040155Y-124333000D01*
X174161476Y-124103110D01*
X173991645Y-123693076D01*
X173601358Y-123264817D01*
X173076892Y-123018514D01*
X172847000Y-123139181D01*
X172593000Y-123139181D01*
X172363108Y-123018514D01*
X171838642Y-123264817D01*
X171651192Y-123470504D01*
X171633162Y-123374683D01*
X171494090Y-123158559D01*
X171281890Y-123013569D01*
X171069000Y-122970458D01*
X171069000Y-121920000D01*
X171001329Y-121579794D01*
X170808618Y-121291382D01*
X166571478Y-117054242D01*
X166614093Y-116840000D01*
X166501054Y-116271715D01*
X166179147Y-115789946D01*
X165849974Y-115570000D01*
X166179147Y-115350054D01*
X166501054Y-114868285D01*
X166614093Y-114300000D01*
X166501054Y-113731715D01*
X166179147Y-113249946D01*
X165838447Y-113022298D01*
X165981358Y-112955183D01*
X166371645Y-112526924D01*
X166541476Y-112116890D01*
X166420155Y-111887000D01*
X165227000Y-111887000D01*
X165227000Y-111907000D01*
X164973000Y-111907000D01*
X164973000Y-111887000D01*
X162687000Y-111887000D01*
X162687000Y-111907000D01*
X162433000Y-111907000D01*
X162433000Y-111887000D01*
X161239845Y-111887000D01*
X161118524Y-112116890D01*
X161288355Y-112526924D01*
X161678642Y-112955183D01*
X161821553Y-113022298D01*
X161480853Y-113249946D01*
X161158946Y-113731715D01*
X161045907Y-114300000D01*
X161158946Y-114868285D01*
X161480853Y-115350054D01*
X161810026Y-115570000D01*
X161480853Y-115789946D01*
X161158946Y-116271715D01*
X161045907Y-116840000D01*
X161158946Y-117408285D01*
X161480853Y-117890054D01*
X161810026Y-118110000D01*
X161480853Y-118329946D01*
X161158946Y-118811715D01*
X161045907Y-119380000D01*
X161158946Y-119948285D01*
X161480853Y-120430054D01*
X161810026Y-120650000D01*
X161480853Y-120869946D01*
X161158946Y-121351715D01*
X161045907Y-121920000D01*
X161158946Y-122488285D01*
X161480853Y-122970054D01*
X161810026Y-123190000D01*
X161480853Y-123409946D01*
X161279896Y-123710700D01*
X160020370Y-123710700D01*
X151329835Y-115020165D01*
X151086745Y-114857737D01*
X150800000Y-114800700D01*
X148734498Y-114800700D01*
X148834093Y-114300000D01*
X148721054Y-113731715D01*
X148399147Y-113249946D01*
X148069974Y-113030000D01*
X148399147Y-112810054D01*
X148609317Y-112495512D01*
X148826745Y-112452263D01*
X149069835Y-112289835D01*
X149754835Y-111604835D01*
X149917263Y-111361745D01*
X149974300Y-111075000D01*
X149974300Y-108370000D01*
X161062560Y-108370000D01*
X161062560Y-110070000D01*
X161106838Y-110305317D01*
X161245910Y-110521441D01*
X161458110Y-110666431D01*
X161566107Y-110688301D01*
X161288355Y-110993076D01*
X161118524Y-111403110D01*
X161239845Y-111633000D01*
X162433000Y-111633000D01*
X162433000Y-111613000D01*
X162687000Y-111613000D01*
X162687000Y-111633000D01*
X164973000Y-111633000D01*
X164973000Y-111613000D01*
X165227000Y-111613000D01*
X165227000Y-111633000D01*
X166420155Y-111633000D01*
X166541476Y-111403110D01*
X166371645Y-110993076D01*
X166095499Y-110690063D01*
X166185317Y-110673162D01*
X166401441Y-110534090D01*
X166546431Y-110321890D01*
X166597440Y-110070000D01*
X166597440Y-108370000D01*
X166553162Y-108134683D01*
X166414090Y-107918559D01*
X166201890Y-107773569D01*
X165950000Y-107722560D01*
X164250000Y-107722560D01*
X164014683Y-107766838D01*
X163827923Y-107887015D01*
X163661890Y-107773569D01*
X163410000Y-107722560D01*
X161710000Y-107722560D01*
X161474683Y-107766838D01*
X161258559Y-107905910D01*
X161113569Y-108118110D01*
X161062560Y-108370000D01*
X149974300Y-108370000D01*
X149974300Y-108225000D01*
X149917263Y-107938255D01*
X149754835Y-107695165D01*
X148844835Y-106785165D01*
X148601745Y-106622737D01*
X148315000Y-106565700D01*
X121987919Y-106565700D01*
X121701174Y-106622737D01*
X121458084Y-106785165D01*
X116310165Y-111933084D01*
X116147737Y-112176174D01*
X116108599Y-112372937D01*
X115789946Y-112585853D01*
X115570000Y-112915026D01*
X115350054Y-112585853D01*
X114868285Y-112263946D01*
X114300000Y-112150907D01*
X113731715Y-112263946D01*
X113249946Y-112585853D01*
X113030000Y-112915026D01*
X112810054Y-112585853D01*
X112328285Y-112263946D01*
X111760000Y-112150907D01*
X111191715Y-112263946D01*
X110709946Y-112585853D01*
X110490000Y-112915026D01*
X110270054Y-112585853D01*
X109788285Y-112263946D01*
X109220000Y-112150907D01*
X108651715Y-112263946D01*
X108169946Y-112585853D01*
X107942298Y-112926553D01*
X107875183Y-112783642D01*
X107446924Y-112393355D01*
X107036890Y-112223524D01*
X106807000Y-112344845D01*
X106807000Y-113538000D01*
X106827000Y-113538000D01*
X106827000Y-113792000D01*
X106807000Y-113792000D01*
X106807000Y-116078000D01*
X106827000Y-116078000D01*
X106827000Y-116332000D01*
X106807000Y-116332000D01*
X106807000Y-117525155D01*
X107036890Y-117646476D01*
X107446924Y-117476645D01*
X107875183Y-117086358D01*
X107942298Y-116943447D01*
X108169946Y-117284147D01*
X108470700Y-117485104D01*
X108470700Y-119380000D01*
X108527737Y-119666745D01*
X108690165Y-119909835D01*
X109731030Y-120950700D01*
X106770370Y-120950700D01*
X104889300Y-119069630D01*
X104889300Y-117485104D01*
X105190054Y-117284147D01*
X105417702Y-116943447D01*
X105484817Y-117086358D01*
X105913076Y-117476645D01*
X106323110Y-117646476D01*
X106553000Y-117525155D01*
X106553000Y-116332000D01*
X106533000Y-116332000D01*
X106533000Y-116078000D01*
X106553000Y-116078000D01*
X106553000Y-113792000D01*
X106533000Y-113792000D01*
X106533000Y-113538000D01*
X106553000Y-113538000D01*
X106553000Y-112344845D01*
X106323110Y-112223524D01*
X105913076Y-112393355D01*
X105484817Y-112783642D01*
X105417702Y-112926553D01*
X105190054Y-112585853D01*
X104708285Y-112263946D01*
X104140000Y-112150907D01*
X103571715Y-112263946D01*
X103089946Y-112585853D01*
X102768039Y-113067622D01*
X102655000Y-113635907D01*
X100710000Y-113635907D01*
X100710000Y-110469608D01*
X100727266Y-110452342D01*
X101045501Y-110906203D01*
X102306434Y-111432936D01*
X103672956Y-111437035D01*
X104937027Y-110917878D01*
X104954499Y-110906203D01*
X105272735Y-110452340D01*
X103000000Y-108179605D01*
X102985858Y-108193748D01*
X102806253Y-108014143D01*
X102820395Y-108000000D01*
X102806253Y-107985858D01*
X102985858Y-107806253D01*
X103000000Y-107820395D01*
X103014143Y-107806253D01*
X103193748Y-107985858D01*
X103179605Y-108000000D01*
X105452340Y-110272735D01*
X105906203Y-109954499D01*
X106432936Y-108693566D01*
X106437035Y-107327044D01*
X105917878Y-106062973D01*
X105906203Y-106045501D01*
X105452342Y-105727266D01*
X105469608Y-105710000D01*
X169530392Y-105710000D01*
X169547658Y-105727266D01*
X169547658Y-105727266D01*
G37*
X169547658Y-105727266D02*
X169093797Y-106045501D01*
X168567064Y-107306434D01*
X168562965Y-108672956D01*
X169082122Y-109937027D01*
X169093797Y-109954499D01*
X169547660Y-110272735D01*
X171820395Y-108000000D01*
X171806253Y-107985858D01*
X171985858Y-107806253D01*
X172000000Y-107820395D01*
X172014143Y-107806253D01*
X172193748Y-107985858D01*
X172179605Y-108000000D01*
X172193748Y-108014143D01*
X172014143Y-108193748D01*
X172000000Y-108179605D01*
X169727265Y-110452340D01*
X170045501Y-110906203D01*
X171306434Y-111432936D01*
X172672956Y-111437035D01*
X173937027Y-110917878D01*
X173954499Y-110906203D01*
X174272734Y-110452342D01*
X174290000Y-110469608D01*
X174290000Y-144530392D01*
X174272734Y-144547658D01*
X173954499Y-144093797D01*
X172693566Y-143567064D01*
X171327044Y-143562965D01*
X170062973Y-144082122D01*
X170045501Y-144093797D01*
X169727265Y-144547660D01*
X172000000Y-146820395D01*
X172014143Y-146806253D01*
X172193748Y-146985858D01*
X172179605Y-147000000D01*
X172193748Y-147014143D01*
X172014143Y-147193748D01*
X172000000Y-147179605D01*
X171985858Y-147193748D01*
X171806253Y-147014143D01*
X171820395Y-147000000D01*
X169547660Y-144727265D01*
X169093797Y-145045501D01*
X168567064Y-146306434D01*
X168562965Y-147672956D01*
X169082122Y-148937027D01*
X169093797Y-148954499D01*
X169547658Y-149272734D01*
X169530392Y-149290000D01*
X105469608Y-149290000D01*
X105452342Y-149272734D01*
X105906203Y-148954499D01*
X106432936Y-147693566D01*
X106437035Y-146327044D01*
X105917878Y-145062973D01*
X105906203Y-145045501D01*
X105452340Y-144727265D01*
X103179605Y-147000000D01*
X103193748Y-147014143D01*
X103014143Y-147193748D01*
X103000000Y-147179605D01*
X102985858Y-147193748D01*
X102806253Y-147014143D01*
X102820395Y-147000000D01*
X102806253Y-146985858D01*
X102985858Y-146806253D01*
X103000000Y-146820395D01*
X105272735Y-144547660D01*
X104954499Y-144093797D01*
X103693566Y-143567064D01*
X102327044Y-143562965D01*
X101062973Y-144082122D01*
X101045501Y-144093797D01*
X100727266Y-144547658D01*
X100710000Y-144530392D01*
X100710000Y-139035907D01*
X102655000Y-139035907D01*
X102655000Y-139094093D01*
X102768039Y-139662378D01*
X103089946Y-140144147D01*
X103375578Y-140335000D01*
X103089946Y-140525853D01*
X102768039Y-141007622D01*
X102655000Y-141575907D01*
X102655000Y-141634093D01*
X102768039Y-142202378D01*
X103089946Y-142684147D01*
X103571715Y-143006054D01*
X104140000Y-143119093D01*
X104708285Y-143006054D01*
X105190054Y-142684147D01*
X105417702Y-142343447D01*
X105484817Y-142486358D01*
X105913076Y-142876645D01*
X106323110Y-143046476D01*
X106553000Y-142925155D01*
X106553000Y-141732000D01*
X106533000Y-141732000D01*
X106533000Y-141478000D01*
X106553000Y-141478000D01*
X106553000Y-139192000D01*
X106533000Y-139192000D01*
X106533000Y-138938000D01*
X106553000Y-138938000D01*
X106553000Y-137744845D01*
X106323110Y-137623524D01*
X105913076Y-137793355D01*
X105484817Y-138183642D01*
X105417702Y-138326553D01*
X105190054Y-137985853D01*
X104708285Y-137663946D01*
X104140000Y-137550907D01*
X103571715Y-137663946D01*
X103089946Y-137985853D01*
X102768039Y-138467622D01*
X102655000Y-139035907D01*
X100710000Y-139035907D01*
X100710000Y-113635907D01*
X102655000Y-113635907D01*
X102655000Y-113694093D01*
X102768039Y-114262378D01*
X103089946Y-114744147D01*
X103375578Y-114935000D01*
X103089946Y-115125853D01*
X102768039Y-115607622D01*
X102655000Y-116175907D01*
X102655000Y-116234093D01*
X102768039Y-116802378D01*
X103089946Y-117284147D01*
X103390700Y-117485104D01*
X103390700Y-119380000D01*
X103447737Y-119666745D01*
X103610165Y-119909835D01*
X105930165Y-122229835D01*
X106173255Y-122392263D01*
X106460000Y-122449300D01*
X109939630Y-122449300D01*
X124050700Y-136560370D01*
X124050700Y-141589630D01*
X123417440Y-142222890D01*
X123417440Y-140755000D01*
X123373162Y-140519683D01*
X123234090Y-140303559D01*
X123021890Y-140158569D01*
X122965546Y-140147159D01*
X122970054Y-140144147D01*
X123291961Y-139662378D01*
X123405000Y-139094093D01*
X123405000Y-139035907D01*
X123291961Y-138467622D01*
X122970054Y-137985853D01*
X122488285Y-137663946D01*
X122338029Y-137634058D01*
X122206745Y-137546337D01*
X121920000Y-137489300D01*
X121633255Y-137546337D01*
X121501971Y-137634058D01*
X121351715Y-137663946D01*
X120869946Y-137985853D01*
X120650000Y-138315026D01*
X120430054Y-137985853D01*
X119948285Y-137663946D01*
X119380000Y-137550907D01*
X118811715Y-137663946D01*
X118329946Y-137985853D01*
X118110000Y-138315026D01*
X117890054Y-137985853D01*
X117408285Y-137663946D01*
X116840000Y-137550907D01*
X116271715Y-137663946D01*
X115789946Y-137985853D01*
X115570000Y-138315026D01*
X115350054Y-137985853D01*
X114868285Y-137663946D01*
X114300000Y-137550907D01*
X113731715Y-137663946D01*
X113249946Y-137985853D01*
X113030000Y-138315026D01*
X112810054Y-137985853D01*
X112328285Y-137663946D01*
X111760000Y-137550907D01*
X111191715Y-137663946D01*
X110709946Y-137985853D01*
X110490000Y-138315026D01*
X110270054Y-137985853D01*
X109788285Y-137663946D01*
X109220000Y-137550907D01*
X108651715Y-137663946D01*
X108169946Y-137985853D01*
X107942298Y-138326553D01*
X107875183Y-138183642D01*
X107446924Y-137793355D01*
X107036890Y-137623524D01*
X106807000Y-137744845D01*
X106807000Y-138938000D01*
X106827000Y-138938000D01*
X106827000Y-139192000D01*
X106807000Y-139192000D01*
X106807000Y-141478000D01*
X106827000Y-141478000D01*
X106827000Y-141732000D01*
X106807000Y-141732000D01*
X106807000Y-142925155D01*
X107036890Y-143046476D01*
X107446924Y-142876645D01*
X107875183Y-142486358D01*
X107942298Y-142343447D01*
X108169946Y-142684147D01*
X108651715Y-143006054D01*
X109220000Y-143119093D01*
X109788285Y-143006054D01*
X110270054Y-142684147D01*
X110490000Y-142354974D01*
X110709946Y-142684147D01*
X111191715Y-143006054D01*
X111760000Y-143119093D01*
X112328285Y-143006054D01*
X112810054Y-142684147D01*
X113030000Y-142354974D01*
X113249946Y-142684147D01*
X113731715Y-143006054D01*
X114300000Y-143119093D01*
X114868285Y-143006054D01*
X115350054Y-142684147D01*
X115570000Y-142354974D01*
X115789946Y-142684147D01*
X116271715Y-143006054D01*
X116840000Y-143119093D01*
X117408285Y-143006054D01*
X117890054Y-142684147D01*
X118110000Y-142354974D01*
X118329946Y-142684147D01*
X118811715Y-143006054D01*
X119380000Y-143119093D01*
X119948285Y-143006054D01*
X120430054Y-142684147D01*
X120457850Y-142642548D01*
X120466838Y-142690317D01*
X120605910Y-142906441D01*
X120818110Y-143051431D01*
X121070000Y-143102440D01*
X122537890Y-143102440D01*
X120989630Y-144650700D01*
X117650000Y-144650700D01*
X117363255Y-144707737D01*
X117120165Y-144870165D01*
X116310165Y-145680165D01*
X116147737Y-145923255D01*
X116129722Y-146013822D01*
X115789946Y-146240853D01*
X115468039Y-146722622D01*
X115355000Y-147290907D01*
X115355000Y-147349093D01*
X115468039Y-147917378D01*
X115789946Y-148399147D01*
X116271715Y-148721054D01*
X116840000Y-148834093D01*
X117408285Y-148721054D01*
X117890054Y-148399147D01*
X117917850Y-148357548D01*
X117926838Y-148405317D01*
X118065910Y-148621441D01*
X118278110Y-148766431D01*
X118530000Y-148817440D01*
X120230000Y-148817440D01*
X120465317Y-148773162D01*
X120681441Y-148634090D01*
X120826431Y-148421890D01*
X120877440Y-148170000D01*
X120877440Y-147924000D01*
X120988435Y-147849835D01*
X121232520Y-147605750D01*
X148375000Y-147605750D01*
X148375000Y-148296309D01*
X148471673Y-148529698D01*
X148650301Y-148708327D01*
X148883690Y-148805000D01*
X149574250Y-148805000D01*
X149733000Y-148646250D01*
X149733000Y-147447000D01*
X148533750Y-147447000D01*
X148375000Y-147605750D01*
X121232520Y-147605750D01*
X122494579Y-146343691D01*
X148375000Y-146343691D01*
X148375000Y-147034250D01*
X148533750Y-147193000D01*
X149733000Y-147193000D01*
X149733000Y-145993750D01*
X149987000Y-145993750D01*
X149987000Y-147193000D01*
X150007000Y-147193000D01*
X150007000Y-147447000D01*
X149987000Y-147447000D01*
X149987000Y-148646250D01*
X150145750Y-148805000D01*
X150836310Y-148805000D01*
X151069699Y-148708327D01*
X151248327Y-148529698D01*
X151320597Y-148355223D01*
X151349946Y-148399147D01*
X151831715Y-148721054D01*
X152400000Y-148834093D01*
X152968285Y-148721054D01*
X153450054Y-148399147D01*
X153670000Y-148069974D01*
X153889946Y-148399147D01*
X154371715Y-148721054D01*
X154940000Y-148834093D01*
X155508285Y-148721054D01*
X155990054Y-148399147D01*
X156210000Y-148069974D01*
X156429946Y-148399147D01*
X156911715Y-148721054D01*
X157480000Y-148834093D01*
X158048285Y-148721054D01*
X158530054Y-148399147D01*
X158851961Y-147917378D01*
X158965000Y-147349093D01*
X158965000Y-147290907D01*
X158851961Y-146722622D01*
X158530054Y-146240853D01*
X158048285Y-145918946D01*
X157480000Y-145805907D01*
X156911715Y-145918946D01*
X156429946Y-146240853D01*
X156210000Y-146570026D01*
X155990054Y-146240853D01*
X155508285Y-145918946D01*
X154940000Y-145805907D01*
X154371715Y-145918946D01*
X153889946Y-146240853D01*
X153670000Y-146570026D01*
X153450054Y-146240853D01*
X152968285Y-145918946D01*
X152400000Y-145805907D01*
X151831715Y-145918946D01*
X151349946Y-146240853D01*
X151320597Y-146284777D01*
X151248327Y-146110302D01*
X151069699Y-145931673D01*
X150836310Y-145835000D01*
X150145750Y-145835000D01*
X149987000Y-145993750D01*
X149733000Y-145993750D01*
X149574250Y-145835000D01*
X148883690Y-145835000D01*
X148650301Y-145931673D01*
X148471673Y-146110302D01*
X148375000Y-146343691D01*
X122494579Y-146343691D01*
X126129835Y-142708435D01*
X126239039Y-142545000D01*
X126292263Y-142465345D01*
X126349300Y-142178600D01*
X126349300Y-141410000D01*
X130952560Y-141410000D01*
X130952560Y-144910000D01*
X130996838Y-145145317D01*
X131135910Y-145361441D01*
X131348110Y-145506431D01*
X131600000Y-145557440D01*
X135100000Y-145557440D01*
X135335317Y-145513162D01*
X135551441Y-145374090D01*
X135696431Y-145161890D01*
X135747440Y-144910000D01*
X135747440Y-142235337D01*
X135761673Y-142269698D01*
X135940301Y-142448327D01*
X136173690Y-142545000D01*
X137764250Y-142545000D01*
X137923000Y-142386250D01*
X137923000Y-140287000D01*
X138177000Y-140287000D01*
X138177000Y-142386250D01*
X138335750Y-142545000D01*
X139926310Y-142545000D01*
X140159699Y-142448327D01*
X140338327Y-142269698D01*
X140435000Y-142036309D01*
X140435000Y-140445750D01*
X140276250Y-140287000D01*
X138177000Y-140287000D01*
X137923000Y-140287000D01*
X135823750Y-140287000D01*
X135665000Y-140445750D01*
X135665000Y-141115378D01*
X135564090Y-140958559D01*
X135351890Y-140813569D01*
X135100000Y-140762560D01*
X131600000Y-140762560D01*
X131364683Y-140806838D01*
X131148559Y-140945910D01*
X131003569Y-141158110D01*
X130952560Y-141410000D01*
X126349300Y-141410000D01*
X126349300Y-136231051D01*
X127808084Y-137689835D01*
X128051174Y-137852263D01*
X128337919Y-137909300D01*
X130952560Y-137909300D01*
X130952560Y-138910000D01*
X130996838Y-139145317D01*
X131135910Y-139361441D01*
X131348110Y-139506431D01*
X131600000Y-139557440D01*
X135100000Y-139557440D01*
X135335317Y-139513162D01*
X135551441Y-139374090D01*
X135665000Y-139207891D01*
X135665000Y-139874250D01*
X135823750Y-140033000D01*
X137923000Y-140033000D01*
X137923000Y-137933750D01*
X138177000Y-137933750D01*
X138177000Y-140033000D01*
X140276250Y-140033000D01*
X140435000Y-139874250D01*
X140435000Y-138283691D01*
X140338327Y-138050302D01*
X140159699Y-137871673D01*
X139926310Y-137775000D01*
X138335750Y-137775000D01*
X138177000Y-137933750D01*
X137923000Y-137933750D01*
X137764250Y-137775000D01*
X136173690Y-137775000D01*
X135940301Y-137871673D01*
X135761673Y-138050302D01*
X135747440Y-138084663D01*
X135747440Y-135410000D01*
X135703162Y-135174683D01*
X135564090Y-134958559D01*
X135351890Y-134813569D01*
X135100000Y-134762560D01*
X131600000Y-134762560D01*
X131364683Y-134806838D01*
X131148559Y-134945910D01*
X131003569Y-135158110D01*
X130952560Y-135410000D01*
X130952560Y-136410700D01*
X128648289Y-136410700D01*
X112509300Y-120271711D01*
X112509300Y-117485104D01*
X112810054Y-117284147D01*
X113030000Y-116954974D01*
X113249946Y-117284147D01*
X113731715Y-117606054D01*
X114300000Y-117719093D01*
X114868285Y-117606054D01*
X115350054Y-117284147D01*
X115570000Y-116954974D01*
X115789946Y-117284147D01*
X116271715Y-117606054D01*
X116840000Y-117719093D01*
X117408285Y-117606054D01*
X117890054Y-117284147D01*
X118110000Y-116954974D01*
X118329946Y-117284147D01*
X118811715Y-117606054D01*
X119380000Y-117719093D01*
X119948285Y-117606054D01*
X120430054Y-117284147D01*
X120457850Y-117242548D01*
X120466838Y-117290317D01*
X120605910Y-117506441D01*
X120818110Y-117651431D01*
X121070000Y-117702440D01*
X122770000Y-117702440D01*
X123005317Y-117658162D01*
X123221441Y-117519090D01*
X123366431Y-117306890D01*
X123417440Y-117055000D01*
X123417440Y-115355000D01*
X123373162Y-115119683D01*
X123252985Y-114932923D01*
X123366431Y-114766890D01*
X123417440Y-114515000D01*
X123417440Y-112815000D01*
X123373162Y-112579683D01*
X123234090Y-112363559D01*
X123021890Y-112218569D01*
X122770000Y-112167560D01*
X121070000Y-112167560D01*
X120834683Y-112211838D01*
X120618559Y-112350910D01*
X120473569Y-112563110D01*
X120459914Y-112630541D01*
X120430054Y-112585853D01*
X120362125Y-112540464D01*
X121992589Y-110910000D01*
X125502560Y-110910000D01*
X125502560Y-112610000D01*
X125546838Y-112845317D01*
X125685910Y-113061441D01*
X125898110Y-113206431D01*
X126006107Y-113228301D01*
X125728355Y-113533076D01*
X125558524Y-113943110D01*
X125679845Y-114173000D01*
X126873000Y-114173000D01*
X126873000Y-114153000D01*
X127127000Y-114153000D01*
X127127000Y-114173000D01*
X128320155Y-114173000D01*
X128441476Y-113943110D01*
X128271645Y-113533076D01*
X127995499Y-113230063D01*
X128085317Y-113213162D01*
X128301441Y-113074090D01*
X128446431Y-112861890D01*
X128497440Y-112610000D01*
X128497440Y-110910000D01*
X128453162Y-110674683D01*
X128314090Y-110458559D01*
X128101890Y-110313569D01*
X127850000Y-110262560D01*
X126150000Y-110262560D01*
X125914683Y-110306838D01*
X125698559Y-110445910D01*
X125553569Y-110658110D01*
X125502560Y-110910000D01*
X121992589Y-110910000D01*
X122933289Y-109969300D01*
X138321245Y-109969300D01*
X138346838Y-110105317D01*
X138485910Y-110321441D01*
X138698110Y-110466431D01*
X138950000Y-110517440D01*
X140450000Y-110517440D01*
X140685317Y-110473162D01*
X140901441Y-110334090D01*
X141046431Y-110121890D01*
X141049081Y-110108803D01*
X141185910Y-110321441D01*
X141398110Y-110466431D01*
X141650000Y-110517440D01*
X143150000Y-110517440D01*
X143385317Y-110473162D01*
X143420341Y-110450625D01*
X143465910Y-110521441D01*
X143678110Y-110666431D01*
X143745541Y-110680086D01*
X143700853Y-110709946D01*
X143378946Y-111191715D01*
X143265907Y-111760000D01*
X143378946Y-112328285D01*
X143700853Y-112810054D01*
X144030026Y-113030000D01*
X143700853Y-113249946D01*
X143378946Y-113731715D01*
X143265907Y-114300000D01*
X143365502Y-114800700D01*
X128381912Y-114800700D01*
X128441476Y-114656890D01*
X128320155Y-114427000D01*
X127127000Y-114427000D01*
X127127000Y-114447000D01*
X126873000Y-114447000D01*
X126873000Y-114427000D01*
X125679845Y-114427000D01*
X125558524Y-114656890D01*
X125728355Y-115066924D01*
X126118642Y-115495183D01*
X126261553Y-115562298D01*
X125920853Y-115789946D01*
X125598946Y-116271715D01*
X125485907Y-116840000D01*
X125598946Y-117408285D01*
X125920853Y-117890054D01*
X126250026Y-118110000D01*
X125920853Y-118329946D01*
X125598946Y-118811715D01*
X125485907Y-119380000D01*
X125598946Y-119948285D01*
X125920853Y-120430054D01*
X126250026Y-120650000D01*
X125920853Y-120869946D01*
X125598946Y-121351715D01*
X125485907Y-121920000D01*
X125598946Y-122488285D01*
X125920853Y-122970054D01*
X126250026Y-123190000D01*
X125920853Y-123409946D01*
X125598946Y-123891715D01*
X125485907Y-124460000D01*
X125598946Y-125028285D01*
X125920853Y-125510054D01*
X126250026Y-125730000D01*
X125920853Y-125949946D01*
X125598946Y-126431715D01*
X125485907Y-127000000D01*
X125598946Y-127568285D01*
X125920853Y-128050054D01*
X126250026Y-128270000D01*
X125920853Y-128489946D01*
X125598946Y-128971715D01*
X125485907Y-129540000D01*
X125598946Y-130108285D01*
X125920853Y-130590054D01*
X126170700Y-130756996D01*
X126170700Y-130782560D01*
X126170000Y-130782560D01*
X125934683Y-130826838D01*
X125718559Y-130965910D01*
X125573569Y-131178110D01*
X125522560Y-131430000D01*
X125522560Y-132730000D01*
X125566838Y-132965317D01*
X125705910Y-133181441D01*
X125918110Y-133326431D01*
X126170000Y-133377440D01*
X127670000Y-133377440D01*
X127905317Y-133333162D01*
X128121441Y-133194090D01*
X128266431Y-132981890D01*
X128269081Y-132968803D01*
X128405910Y-133181441D01*
X128618110Y-133326431D01*
X128870000Y-133377440D01*
X130370000Y-133377440D01*
X130605317Y-133333162D01*
X130821441Y-133194090D01*
X130966431Y-132981890D01*
X131017440Y-132730000D01*
X131017440Y-131430000D01*
X130973162Y-131194683D01*
X130834090Y-130978559D01*
X130621890Y-130833569D01*
X130370000Y-130782560D01*
X130369300Y-130782560D01*
X130369300Y-121090370D01*
X131330370Y-120129300D01*
X143499896Y-120129300D01*
X143700853Y-120430054D01*
X144030026Y-120650000D01*
X143700853Y-120869946D01*
X143378946Y-121351715D01*
X143265907Y-121920000D01*
X143378946Y-122488285D01*
X143700853Y-122970054D01*
X144030026Y-123190000D01*
X143700853Y-123409946D01*
X143378946Y-123891715D01*
X143265907Y-124460000D01*
X143378946Y-125028285D01*
X143700853Y-125510054D01*
X144030026Y-125730000D01*
X143700853Y-125949946D01*
X143378946Y-126431715D01*
X143265907Y-127000000D01*
X143378946Y-127568285D01*
X143700853Y-128050054D01*
X144030026Y-128270000D01*
X143700853Y-128489946D01*
X143378946Y-128971715D01*
X143265907Y-129540000D01*
X143378946Y-130108285D01*
X143700853Y-130590054D01*
X144030026Y-130810000D01*
X143700853Y-131029946D01*
X143378946Y-131511715D01*
X143265907Y-132080000D01*
X143378946Y-132648285D01*
X143700853Y-133130054D01*
X144030026Y-133350000D01*
X143700853Y-133569946D01*
X143378946Y-134051715D01*
X143265907Y-134620000D01*
X143378946Y-135188285D01*
X143700853Y-135670054D01*
X144030026Y-135890000D01*
X143700853Y-136109946D01*
X143378946Y-136591715D01*
X143265907Y-137160000D01*
X143378946Y-137728285D01*
X143700853Y-138210054D01*
X144030026Y-138430000D01*
X143700853Y-138649946D01*
X143378946Y-139131715D01*
X143265907Y-139700000D01*
X143378946Y-140268285D01*
X143700853Y-140750054D01*
X144030026Y-140970000D01*
X143700853Y-141189946D01*
X143378946Y-141671715D01*
X143265907Y-142240000D01*
X143378946Y-142808285D01*
X143700853Y-143290054D01*
X144030026Y-143510000D01*
X143700853Y-143729946D01*
X143378946Y-144211715D01*
X143265907Y-144780000D01*
X143378946Y-145348285D01*
X143700853Y-145830054D01*
X144182622Y-146151961D01*
X144750907Y-146265000D01*
X144809093Y-146265000D01*
X145377378Y-146151961D01*
X145859147Y-145830054D01*
X146050000Y-145544422D01*
X146240853Y-145830054D01*
X146722622Y-146151961D01*
X147290907Y-146265000D01*
X147349093Y-146265000D01*
X147917378Y-146151961D01*
X148399147Y-145830054D01*
X148721054Y-145348285D01*
X148834093Y-144780000D01*
X148721054Y-144211715D01*
X148399147Y-143729946D01*
X148069974Y-143510000D01*
X148399147Y-143290054D01*
X148721054Y-142808285D01*
X148834093Y-142240000D01*
X148721054Y-141671715D01*
X148399147Y-141189946D01*
X148069974Y-140970000D01*
X148399147Y-140750054D01*
X148721054Y-140268285D01*
X148834093Y-139700000D01*
X148721054Y-139131715D01*
X148399147Y-138649946D01*
X148069974Y-138430000D01*
X148399147Y-138210054D01*
X148721054Y-137728285D01*
X148834093Y-137160000D01*
X148721054Y-136591715D01*
X148399147Y-136109946D01*
X148069974Y-135890000D01*
X148399147Y-135670054D01*
X148721054Y-135188285D01*
X148834093Y-134620000D01*
X148721054Y-134051715D01*
X148399147Y-133569946D01*
X148069974Y-133350000D01*
X148399147Y-133130054D01*
X148721054Y-132648285D01*
X148834093Y-132080000D01*
X148721054Y-131511715D01*
X148399147Y-131029946D01*
X148069974Y-130810000D01*
X148399147Y-130590054D01*
X148721054Y-130108285D01*
X148834093Y-129540000D01*
X148721054Y-128971715D01*
X148399147Y-128489946D01*
X148069974Y-128270000D01*
X148399147Y-128050054D01*
X148721054Y-127568285D01*
X148834093Y-127000000D01*
X148721054Y-126431715D01*
X148399147Y-125949946D01*
X148069974Y-125730000D01*
X148399147Y-125510054D01*
X148721054Y-125028285D01*
X148834093Y-124460000D01*
X148721054Y-123891715D01*
X148399147Y-123409946D01*
X148069974Y-123190000D01*
X148399147Y-122970054D01*
X148721054Y-122488285D01*
X148834093Y-121920000D01*
X148721054Y-121351715D01*
X148399147Y-120869946D01*
X148069974Y-120650000D01*
X148399147Y-120430054D01*
X148721054Y-119948285D01*
X148834093Y-119380000D01*
X148728530Y-118849300D01*
X150889630Y-118849300D01*
X159570165Y-127529835D01*
X159813255Y-127692263D01*
X160100000Y-127749300D01*
X161279896Y-127749300D01*
X161480853Y-128050054D01*
X161810026Y-128270000D01*
X161480853Y-128489946D01*
X161158946Y-128971715D01*
X161045907Y-129540000D01*
X161158946Y-130108285D01*
X161480853Y-130590054D01*
X161810026Y-130810000D01*
X161480853Y-131029946D01*
X161158946Y-131511715D01*
X161045907Y-132080000D01*
X161158946Y-132648285D01*
X161480853Y-133130054D01*
X161810026Y-133350000D01*
X161480853Y-133569946D01*
X161158946Y-134051715D01*
X161045907Y-134620000D01*
X161158946Y-135188285D01*
X161480853Y-135670054D01*
X161810026Y-135890000D01*
X161480853Y-136109946D01*
X161158946Y-136591715D01*
X161045907Y-137160000D01*
X161158946Y-137728285D01*
X161480853Y-138210054D01*
X161810026Y-138430000D01*
X161480853Y-138649946D01*
X161158946Y-139131715D01*
X161045907Y-139700000D01*
X161158946Y-140268285D01*
X161480853Y-140750054D01*
X161810026Y-140970000D01*
X161480853Y-141189946D01*
X161158946Y-141671715D01*
X161045907Y-142240000D01*
X161158946Y-142808285D01*
X161480853Y-143290054D01*
X161810026Y-143510000D01*
X161480853Y-143729946D01*
X161158946Y-144211715D01*
X161045907Y-144780000D01*
X161158946Y-145348285D01*
X161480853Y-145830054D01*
X161962622Y-146151961D01*
X162530907Y-146265000D01*
X162589093Y-146265000D01*
X163157378Y-146151961D01*
X163639147Y-145830054D01*
X163830000Y-145544422D01*
X164020853Y-145830054D01*
X164502622Y-146151961D01*
X165070907Y-146265000D01*
X165129093Y-146265000D01*
X165697378Y-146151961D01*
X166179147Y-145830054D01*
X166501054Y-145348285D01*
X166614093Y-144780000D01*
X166501054Y-144211715D01*
X166179147Y-143729946D01*
X165849974Y-143510000D01*
X166179147Y-143290054D01*
X166501054Y-142808285D01*
X166614093Y-142240000D01*
X166501054Y-141671715D01*
X166179147Y-141189946D01*
X165849974Y-140970000D01*
X166179147Y-140750054D01*
X166501054Y-140268285D01*
X166614093Y-139700000D01*
X166501054Y-139131715D01*
X166179147Y-138649946D01*
X165849974Y-138430000D01*
X166179147Y-138210054D01*
X166501054Y-137728285D01*
X166614093Y-137160000D01*
X166501054Y-136591715D01*
X166179147Y-136109946D01*
X165849974Y-135890000D01*
X166179147Y-135670054D01*
X166501054Y-135188285D01*
X166614093Y-134620000D01*
X166501054Y-134051715D01*
X166179147Y-133569946D01*
X165849974Y-133350000D01*
X166179147Y-133130054D01*
X166501054Y-132648285D01*
X166614093Y-132080000D01*
X166501054Y-131511715D01*
X166179147Y-131029946D01*
X165849974Y-130810000D01*
X166179147Y-130590054D01*
X166501054Y-130108285D01*
X166614093Y-129540000D01*
X166501054Y-128971715D01*
X166179147Y-128489946D01*
X165849974Y-128270000D01*
X166179147Y-128050054D01*
X166501054Y-127568285D01*
X166614093Y-127000000D01*
X166501054Y-126431715D01*
X166179147Y-125949946D01*
X165849974Y-125730000D01*
X166179147Y-125510054D01*
X166501054Y-125028285D01*
X166614093Y-124460000D01*
X166501054Y-123891715D01*
X166179147Y-123409946D01*
X165849974Y-123190000D01*
X166179147Y-122970054D01*
X166501054Y-122488285D01*
X166614093Y-121920000D01*
X166501054Y-121351715D01*
X166179147Y-120869946D01*
X165849974Y-120650000D01*
X166179147Y-120430054D01*
X166501054Y-119948285D01*
X166575713Y-119572949D01*
X169291000Y-122288236D01*
X169291000Y-122969898D01*
X169094683Y-123006838D01*
X168878559Y-123145910D01*
X168733569Y-123358110D01*
X168682560Y-123610000D01*
X168682560Y-125310000D01*
X168726838Y-125545317D01*
X168865910Y-125761441D01*
X169078110Y-125906431D01*
X169145541Y-125920086D01*
X169100853Y-125949946D01*
X168778946Y-126431715D01*
X168665907Y-127000000D01*
X168778946Y-127568285D01*
X169100853Y-128050054D01*
X169291000Y-128177106D01*
X169291000Y-128362894D01*
X169100853Y-128489946D01*
X168778946Y-128971715D01*
X168665907Y-129540000D01*
X168778946Y-130108285D01*
X169100853Y-130590054D01*
X169291000Y-130717106D01*
X169291000Y-130902894D01*
X169100853Y-131029946D01*
X168778946Y-131511715D01*
X168665907Y-132080000D01*
X168778946Y-132648285D01*
X169100853Y-133130054D01*
X169582622Y-133451961D01*
X170150907Y-133565000D01*
X170209093Y-133565000D01*
X170777378Y-133451961D01*
X171259147Y-133130054D01*
X171448345Y-132846899D01*
X171448355Y-132846924D01*
X171838642Y-133275183D01*
X172363108Y-133521486D01*
X172593000Y-133400819D01*
X172593000Y-132207000D01*
X172847000Y-132207000D01*
X172847000Y-133400819D01*
X173076892Y-133521486D01*
X173601358Y-133275183D01*
X173991645Y-132846924D01*
X174161476Y-132436890D01*
X174040155Y-132207000D01*
X172847000Y-132207000D01*
X172593000Y-132207000D01*
X172573000Y-132207000D01*
X172573000Y-131953000D01*
X172593000Y-131953000D01*
X172593000Y-129667000D01*
X172847000Y-129667000D01*
X172847000Y-131953000D01*
X174040155Y-131953000D01*
X174161476Y-131723110D01*
X173991645Y-131313076D01*
X173601358Y-130884817D01*
X173442046Y-130810000D01*
X173601358Y-130735183D01*
X173991645Y-130306924D01*
X174161476Y-129896890D01*
X174040155Y-129667000D01*
X172847000Y-129667000D01*
X172593000Y-129667000D01*
X172573000Y-129667000D01*
X172573000Y-129413000D01*
X172593000Y-129413000D01*
X172593000Y-127127000D01*
X172847000Y-127127000D01*
X172847000Y-129413000D01*
X174040155Y-129413000D01*
X174161476Y-129183110D01*
X173991645Y-128773076D01*
X173601358Y-128344817D01*
X173442046Y-128270000D01*
X173601358Y-128195183D01*
X173991645Y-127766924D01*
X174161476Y-127356890D01*
X174040155Y-127127000D01*
X172847000Y-127127000D01*
X172593000Y-127127000D01*
X172573000Y-127127000D01*
X172573000Y-126873000D01*
X172593000Y-126873000D01*
X172593000Y-124587000D01*
X172847000Y-124587000D01*
X172847000Y-126873000D01*
X174040155Y-126873000D01*
X174161476Y-126643110D01*
X173991645Y-126233076D01*
X173601358Y-125804817D01*
X173442046Y-125730000D01*
X173601358Y-125655183D01*
X173991645Y-125226924D01*
X174161476Y-124816890D01*
X174040155Y-124587000D01*
X172847000Y-124587000D01*
X172593000Y-124587000D01*
X172573000Y-124587000D01*
X172573000Y-124333000D01*
X172593000Y-124333000D01*
X172593000Y-123139181D01*
X172847000Y-123139181D01*
X172847000Y-124333000D01*
X174040155Y-124333000D01*
X174161476Y-124103110D01*
X173991645Y-123693076D01*
X173601358Y-123264817D01*
X173076892Y-123018514D01*
X172847000Y-123139181D01*
X172593000Y-123139181D01*
X172363108Y-123018514D01*
X171838642Y-123264817D01*
X171651192Y-123470504D01*
X171633162Y-123374683D01*
X171494090Y-123158559D01*
X171281890Y-123013569D01*
X171069000Y-122970458D01*
X171069000Y-121920000D01*
X171001329Y-121579794D01*
X170808618Y-121291382D01*
X166571478Y-117054242D01*
X166614093Y-116840000D01*
X166501054Y-116271715D01*
X166179147Y-115789946D01*
X165849974Y-115570000D01*
X166179147Y-115350054D01*
X166501054Y-114868285D01*
X166614093Y-114300000D01*
X166501054Y-113731715D01*
X166179147Y-113249946D01*
X165838447Y-113022298D01*
X165981358Y-112955183D01*
X166371645Y-112526924D01*
X166541476Y-112116890D01*
X166420155Y-111887000D01*
X165227000Y-111887000D01*
X165227000Y-111907000D01*
X164973000Y-111907000D01*
X164973000Y-111887000D01*
X162687000Y-111887000D01*
X162687000Y-111907000D01*
X162433000Y-111907000D01*
X162433000Y-111887000D01*
X161239845Y-111887000D01*
X161118524Y-112116890D01*
X161288355Y-112526924D01*
X161678642Y-112955183D01*
X161821553Y-113022298D01*
X161480853Y-113249946D01*
X161158946Y-113731715D01*
X161045907Y-114300000D01*
X161158946Y-114868285D01*
X161480853Y-115350054D01*
X161810026Y-115570000D01*
X161480853Y-115789946D01*
X161158946Y-116271715D01*
X161045907Y-116840000D01*
X161158946Y-117408285D01*
X161480853Y-117890054D01*
X161810026Y-118110000D01*
X161480853Y-118329946D01*
X161158946Y-118811715D01*
X161045907Y-119380000D01*
X161158946Y-119948285D01*
X161480853Y-120430054D01*
X161810026Y-120650000D01*
X161480853Y-120869946D01*
X161158946Y-121351715D01*
X161045907Y-121920000D01*
X161158946Y-122488285D01*
X161480853Y-122970054D01*
X161810026Y-123190000D01*
X161480853Y-123409946D01*
X161279896Y-123710700D01*
X160020370Y-123710700D01*
X151329835Y-115020165D01*
X151086745Y-114857737D01*
X150800000Y-114800700D01*
X148734498Y-114800700D01*
X148834093Y-114300000D01*
X148721054Y-113731715D01*
X148399147Y-113249946D01*
X148069974Y-113030000D01*
X148399147Y-112810054D01*
X148609317Y-112495512D01*
X148826745Y-112452263D01*
X149069835Y-112289835D01*
X149754835Y-111604835D01*
X149917263Y-111361745D01*
X149974300Y-111075000D01*
X149974300Y-108370000D01*
X161062560Y-108370000D01*
X161062560Y-110070000D01*
X161106838Y-110305317D01*
X161245910Y-110521441D01*
X161458110Y-110666431D01*
X161566107Y-110688301D01*
X161288355Y-110993076D01*
X161118524Y-111403110D01*
X161239845Y-111633000D01*
X162433000Y-111633000D01*
X162433000Y-111613000D01*
X162687000Y-111613000D01*
X162687000Y-111633000D01*
X164973000Y-111633000D01*
X164973000Y-111613000D01*
X165227000Y-111613000D01*
X165227000Y-111633000D01*
X166420155Y-111633000D01*
X166541476Y-111403110D01*
X166371645Y-110993076D01*
X166095499Y-110690063D01*
X166185317Y-110673162D01*
X166401441Y-110534090D01*
X166546431Y-110321890D01*
X166597440Y-110070000D01*
X166597440Y-108370000D01*
X166553162Y-108134683D01*
X166414090Y-107918559D01*
X166201890Y-107773569D01*
X165950000Y-107722560D01*
X164250000Y-107722560D01*
X164014683Y-107766838D01*
X163827923Y-107887015D01*
X163661890Y-107773569D01*
X163410000Y-107722560D01*
X161710000Y-107722560D01*
X161474683Y-107766838D01*
X161258559Y-107905910D01*
X161113569Y-108118110D01*
X161062560Y-108370000D01*
X149974300Y-108370000D01*
X149974300Y-108225000D01*
X149917263Y-107938255D01*
X149754835Y-107695165D01*
X148844835Y-106785165D01*
X148601745Y-106622737D01*
X148315000Y-106565700D01*
X121987919Y-106565700D01*
X121701174Y-106622737D01*
X121458084Y-106785165D01*
X116310165Y-111933084D01*
X116147737Y-112176174D01*
X116108599Y-112372937D01*
X115789946Y-112585853D01*
X115570000Y-112915026D01*
X115350054Y-112585853D01*
X114868285Y-112263946D01*
X114300000Y-112150907D01*
X113731715Y-112263946D01*
X113249946Y-112585853D01*
X113030000Y-112915026D01*
X112810054Y-112585853D01*
X112328285Y-112263946D01*
X111760000Y-112150907D01*
X111191715Y-112263946D01*
X110709946Y-112585853D01*
X110490000Y-112915026D01*
X110270054Y-112585853D01*
X109788285Y-112263946D01*
X109220000Y-112150907D01*
X108651715Y-112263946D01*
X108169946Y-112585853D01*
X107942298Y-112926553D01*
X107875183Y-112783642D01*
X107446924Y-112393355D01*
X107036890Y-112223524D01*
X106807000Y-112344845D01*
X106807000Y-113538000D01*
X106827000Y-113538000D01*
X106827000Y-113792000D01*
X106807000Y-113792000D01*
X106807000Y-116078000D01*
X106827000Y-116078000D01*
X106827000Y-116332000D01*
X106807000Y-116332000D01*
X106807000Y-117525155D01*
X107036890Y-117646476D01*
X107446924Y-117476645D01*
X107875183Y-117086358D01*
X107942298Y-116943447D01*
X108169946Y-117284147D01*
X108470700Y-117485104D01*
X108470700Y-119380000D01*
X108527737Y-119666745D01*
X108690165Y-119909835D01*
X109731030Y-120950700D01*
X106770370Y-120950700D01*
X104889300Y-119069630D01*
X104889300Y-117485104D01*
X105190054Y-117284147D01*
X105417702Y-116943447D01*
X105484817Y-117086358D01*
X105913076Y-117476645D01*
X106323110Y-117646476D01*
X106553000Y-117525155D01*
X106553000Y-116332000D01*
X106533000Y-116332000D01*
X106533000Y-116078000D01*
X106553000Y-116078000D01*
X106553000Y-113792000D01*
X106533000Y-113792000D01*
X106533000Y-113538000D01*
X106553000Y-113538000D01*
X106553000Y-112344845D01*
X106323110Y-112223524D01*
X105913076Y-112393355D01*
X105484817Y-112783642D01*
X105417702Y-112926553D01*
X105190054Y-112585853D01*
X104708285Y-112263946D01*
X104140000Y-112150907D01*
X103571715Y-112263946D01*
X103089946Y-112585853D01*
X102768039Y-113067622D01*
X102655000Y-113635907D01*
X100710000Y-113635907D01*
X100710000Y-110469608D01*
X100727266Y-110452342D01*
X101045501Y-110906203D01*
X102306434Y-111432936D01*
X103672956Y-111437035D01*
X104937027Y-110917878D01*
X104954499Y-110906203D01*
X105272735Y-110452340D01*
X103000000Y-108179605D01*
X102985858Y-108193748D01*
X102806253Y-108014143D01*
X102820395Y-108000000D01*
X102806253Y-107985858D01*
X102985858Y-107806253D01*
X103000000Y-107820395D01*
X103014143Y-107806253D01*
X103193748Y-107985858D01*
X103179605Y-108000000D01*
X105452340Y-110272735D01*
X105906203Y-109954499D01*
X106432936Y-108693566D01*
X106437035Y-107327044D01*
X105917878Y-106062973D01*
X105906203Y-106045501D01*
X105452342Y-105727266D01*
X105469608Y-105710000D01*
X169530392Y-105710000D01*
X169547658Y-105727266D01*
G36*
X143338524Y-116483110D02*
X143459845Y-116713000D01*
X144653000Y-116713000D01*
X144653000Y-116693000D01*
X144907000Y-116693000D01*
X144907000Y-116713000D01*
X147193000Y-116713000D01*
X147193000Y-116693000D01*
X147447000Y-116693000D01*
X147447000Y-116713000D01*
X148640155Y-116713000D01*
X148761476Y-116483110D01*
X148685344Y-116299300D01*
X150489630Y-116299300D01*
X159180165Y-124989835D01*
X159423255Y-125152263D01*
X159710000Y-125209300D01*
X161279896Y-125209300D01*
X161480853Y-125510054D01*
X161810026Y-125730000D01*
X161480853Y-125949946D01*
X161279896Y-126250700D01*
X160410370Y-126250700D01*
X151729835Y-117570165D01*
X151486745Y-117407737D01*
X151200000Y-117350700D01*
X148697770Y-117350700D01*
X148761476Y-117196890D01*
X148640155Y-116967000D01*
X147447000Y-116967000D01*
X147447000Y-116987000D01*
X147193000Y-116987000D01*
X147193000Y-116967000D01*
X144907000Y-116967000D01*
X144907000Y-116987000D01*
X144653000Y-116987000D01*
X144653000Y-116967000D01*
X143459845Y-116967000D01*
X143338524Y-117196890D01*
X143402230Y-117350700D01*
X128412508Y-117350700D01*
X128514093Y-116840000D01*
X128438699Y-116460971D01*
X128600370Y-116299300D01*
X143414656Y-116299300D01*
X143338524Y-116483110D01*
X143338524Y-116483110D01*
G37*
X143338524Y-116483110D02*
X143459845Y-116713000D01*
X144653000Y-116713000D01*
X144653000Y-116693000D01*
X144907000Y-116693000D01*
X144907000Y-116713000D01*
X147193000Y-116713000D01*
X147193000Y-116693000D01*
X147447000Y-116693000D01*
X147447000Y-116713000D01*
X148640155Y-116713000D01*
X148761476Y-116483110D01*
X148685344Y-116299300D01*
X150489630Y-116299300D01*
X159180165Y-124989835D01*
X159423255Y-125152263D01*
X159710000Y-125209300D01*
X161279896Y-125209300D01*
X161480853Y-125510054D01*
X161810026Y-125730000D01*
X161480853Y-125949946D01*
X161279896Y-126250700D01*
X160410370Y-126250700D01*
X151729835Y-117570165D01*
X151486745Y-117407737D01*
X151200000Y-117350700D01*
X148697770Y-117350700D01*
X148761476Y-117196890D01*
X148640155Y-116967000D01*
X147447000Y-116967000D01*
X147447000Y-116987000D01*
X147193000Y-116987000D01*
X147193000Y-116967000D01*
X144907000Y-116967000D01*
X144907000Y-116987000D01*
X144653000Y-116987000D01*
X144653000Y-116967000D01*
X143459845Y-116967000D01*
X143338524Y-117196890D01*
X143402230Y-117350700D01*
X128412508Y-117350700D01*
X128514093Y-116840000D01*
X128438699Y-116460971D01*
X128600370Y-116299300D01*
X143414656Y-116299300D01*
X143338524Y-116483110D01*
M02*
