G04 #@! TF.FileFunction,Soldermask,Top*
%FSLAX46Y46*%
G04 Gerber Fmt 4.6, Leading zero omitted, Abs format (unit mm)*
G04 Created by KiCad (PCBNEW 4.0.7-e2-6376~58~ubuntu16.04.1) date Sat Dec 23 21:02:57 2017*
%MOMM*%
%LPD*%
G01*
G04 APERTURE LIST*
%ADD10C,0.100000*%
%ADD11C,0.101600*%
%ADD12C,0.076200*%
%ADD13C,0.150000*%
%ADD14C,0.127000*%
%ADD15R,2.100000X2.100000*%
%ADD16O,2.100000X2.100000*%
%ADD17R,3.900000X3.900000*%
%ADD18R,1.900000X1.700000*%
%ADD19C,6.000000*%
G04 APERTURE END LIST*
D10*
D11*
X107702000Y-109226000D02*
X107862000Y-108706000D01*
X107742000Y-109006000D02*
X107702000Y-109226000D01*
X107622000Y-108726000D02*
X107742000Y-109006000D01*
X107402000Y-108426000D02*
X107622000Y-108726000D01*
X107312000Y-107996000D02*
X107402000Y-108426000D01*
X107682000Y-108006000D02*
X107682000Y-107836000D01*
X107702000Y-108106000D02*
X107682000Y-108006000D01*
X107652000Y-108196000D02*
X107702000Y-108106000D01*
X107532000Y-108226000D02*
X107652000Y-108196000D01*
X107412000Y-108096000D02*
X107532000Y-108226000D01*
X107342000Y-107906000D02*
X107412000Y-108096000D01*
X107862000Y-107906000D02*
X107772000Y-107776000D01*
X107992000Y-107936000D02*
X107862000Y-107906000D01*
X108102000Y-107896000D02*
X107992000Y-107936000D01*
X108142000Y-107796000D02*
X108102000Y-107896000D01*
X108142000Y-107656000D02*
X108142000Y-107796000D01*
X108042000Y-107516000D02*
X108142000Y-107656000D01*
X107862000Y-107406000D02*
X108042000Y-107516000D01*
X107962000Y-107376000D02*
X107862000Y-107376000D01*
X108112000Y-107366000D02*
X107962000Y-107376000D01*
X108212000Y-107296000D02*
X108112000Y-107366000D01*
X108192000Y-107146000D02*
X108212000Y-107296000D01*
X108082000Y-107046000D02*
X108192000Y-107146000D01*
X107712000Y-107056000D02*
X108082000Y-107046000D01*
X107832000Y-106926000D02*
X107742000Y-107066000D01*
X107852000Y-106816000D02*
X107832000Y-106926000D01*
X107802000Y-106706000D02*
X107852000Y-106816000D01*
X107632000Y-106676000D02*
X107802000Y-106706000D01*
X107472000Y-106736000D02*
X107632000Y-106676000D01*
X107382000Y-107006000D02*
X107472000Y-106736000D01*
X107282000Y-107916000D02*
X107272000Y-107886000D01*
X107312000Y-107896000D02*
X107282000Y-107916000D01*
X107292000Y-107916000D02*
X107312000Y-107896000D01*
X107272000Y-108026000D02*
X107292000Y-107916000D01*
X107212000Y-108136000D02*
X107272000Y-108026000D01*
X107092000Y-108176000D02*
X107212000Y-108136000D01*
X106982000Y-108136000D02*
X107092000Y-108176000D01*
X106972000Y-107946000D02*
X106982000Y-108136000D01*
X107052000Y-107746000D02*
X106972000Y-107946000D01*
X106782000Y-107786000D02*
X107032000Y-107726000D01*
X106662000Y-107706000D02*
X106782000Y-107786000D01*
X106622000Y-107576000D02*
X106662000Y-107706000D01*
X106712000Y-107426000D02*
X106622000Y-107576000D01*
X106982000Y-107376000D02*
X106712000Y-107426000D01*
X106762000Y-107256000D02*
X106972000Y-107306000D01*
X106652000Y-107086000D02*
X106762000Y-107256000D01*
X106762000Y-106896000D02*
X106652000Y-107086000D01*
X107042000Y-106826000D02*
X106762000Y-106896000D01*
X107312000Y-106966000D02*
X107042000Y-106826000D01*
D12*
X107482000Y-107636000D02*
X107602000Y-107546000D01*
X107352000Y-107646000D02*
X107482000Y-107636000D01*
X107232000Y-107576000D02*
X107352000Y-107646000D01*
D13*
X107313623Y-107356000D02*
G75*
G03X107313623Y-107356000I-31623J0D01*
G01*
D14*
X107832000Y-107436000D02*
G75*
G03X107832000Y-107436000I-410000J0D01*
G01*
D13*
X107593623Y-107356000D02*
G75*
G03X107593623Y-107356000I-31623J0D01*
G01*
D15*
X121920000Y-113665000D03*
D16*
X119380000Y-113665000D03*
X116840000Y-113665000D03*
X114300000Y-113665000D03*
X111760000Y-113665000D03*
X109220000Y-113665000D03*
X106680000Y-113665000D03*
X104140000Y-113665000D03*
D15*
X149860000Y-147320000D03*
D16*
X152400000Y-147320000D03*
X154940000Y-147320000D03*
X157480000Y-147320000D03*
D15*
X144780000Y-109220000D03*
D16*
X144780000Y-111760000D03*
X144780000Y-114300000D03*
X144780000Y-116840000D03*
X144780000Y-119380000D03*
X144780000Y-121920000D03*
X144780000Y-124460000D03*
X144780000Y-127000000D03*
X144780000Y-129540000D03*
X144780000Y-132080000D03*
X144780000Y-134620000D03*
X144780000Y-137160000D03*
X144780000Y-139700000D03*
X144780000Y-142240000D03*
X144780000Y-144780000D03*
D15*
X165100000Y-109220000D03*
D16*
X165100000Y-111760000D03*
X165100000Y-114300000D03*
X165100000Y-116840000D03*
X165100000Y-119380000D03*
X165100000Y-121920000D03*
X165100000Y-124460000D03*
X165100000Y-127000000D03*
X165100000Y-129540000D03*
X165100000Y-132080000D03*
X165100000Y-134620000D03*
X165100000Y-137160000D03*
X165100000Y-139700000D03*
X165100000Y-142240000D03*
X165100000Y-144780000D03*
D17*
X133350000Y-137160000D03*
X133350000Y-143160000D03*
X138050000Y-140160000D03*
D15*
X119380000Y-147320000D03*
D16*
X116840000Y-147320000D03*
D18*
X126920000Y-132080000D03*
X129620000Y-132080000D03*
X139700000Y-109220000D03*
X142400000Y-109220000D03*
D15*
X147320000Y-109220000D03*
D16*
X147320000Y-111760000D03*
X147320000Y-114300000D03*
X147320000Y-116840000D03*
X147320000Y-119380000D03*
X147320000Y-121920000D03*
X147320000Y-124460000D03*
X147320000Y-127000000D03*
X147320000Y-129540000D03*
X147320000Y-132080000D03*
X147320000Y-134620000D03*
X147320000Y-137160000D03*
X147320000Y-139700000D03*
X147320000Y-142240000D03*
X147320000Y-144780000D03*
D15*
X162560000Y-109220000D03*
D16*
X162560000Y-111760000D03*
X162560000Y-114300000D03*
X162560000Y-116840000D03*
X162560000Y-119380000D03*
X162560000Y-121920000D03*
X162560000Y-124460000D03*
X162560000Y-127000000D03*
X162560000Y-129540000D03*
X162560000Y-132080000D03*
X162560000Y-134620000D03*
X162560000Y-137160000D03*
X162560000Y-139700000D03*
X162560000Y-142240000D03*
X162560000Y-144780000D03*
D15*
X121920000Y-141605000D03*
D16*
X119380000Y-141605000D03*
X116840000Y-141605000D03*
X114300000Y-141605000D03*
X111760000Y-141605000D03*
X109220000Y-141605000D03*
X106680000Y-141605000D03*
X104140000Y-141605000D03*
D15*
X127000000Y-111760000D03*
D16*
X127000000Y-114300000D03*
X127000000Y-116840000D03*
X127000000Y-119380000D03*
X127000000Y-121920000D03*
X127000000Y-124460000D03*
X127000000Y-127000000D03*
X127000000Y-129540000D03*
D15*
X121920000Y-116205000D03*
D16*
X121920000Y-139065000D03*
X119380000Y-139065000D03*
X119380000Y-116205000D03*
X116840000Y-139065000D03*
X116840000Y-116205000D03*
X114300000Y-139065000D03*
X114300000Y-116205000D03*
X111760000Y-139065000D03*
X111760000Y-116205000D03*
X109220000Y-139065000D03*
X109220000Y-116205000D03*
X106680000Y-139065000D03*
X106680000Y-116205000D03*
X104140000Y-139065000D03*
X104140000Y-116205000D03*
D15*
X170180000Y-124460000D03*
D16*
X172720000Y-124460000D03*
X170180000Y-127000000D03*
X172720000Y-127000000D03*
X170180000Y-129540000D03*
X172720000Y-129540000D03*
X170180000Y-132080000D03*
X172720000Y-132080000D03*
D19*
X172000000Y-147000000D03*
X103000000Y-147000000D03*
X172000000Y-108000000D03*
X103000000Y-108000000D03*
M02*
